<svg width="26" height="26" viewBox="0 0 26 26" fill="none" xmlns="http://www.w3.org/2000/svg">
<rect width="26" height="26" fill="white"/>
<path d="M10.9108 13.4447L4.7762 23.6471L10.1545 18.3598L10.2874 20.493L11.6081 18.3598L12.498 16.9223L13.3878 15.4848L14.7476 13.2882L16.1074 11.0917L16.2429 12.9018L17.1512 11.0917L19.3852 6.57735L21.8157 2.00024L16.7431 8.38292L16.6359 6.98794L11.0547 15.1969L10.9108 13.4447Z" fill="#DE002B" stroke="#DE002B" stroke-width="0.878281" stroke-linecap="round" stroke-linejoin="round"/>
<path d="M17.6885 13.8569L19.6019 10.1773M23.3973 2.87842L22.0799 5.51326" stroke="#DE002B" stroke-width="0.878281" stroke-linecap="round"/>
<path d="M20.7621 9.02703C20.7621 9.26956 20.5655 9.46617 20.3229 9.46617C20.0804 9.46617 19.8838 9.26956 19.8838 9.02703C19.8838 8.7845 20.0804 8.58789 20.3229 8.58789C20.5655 8.58789 20.7621 8.7845 20.7621 9.02703Z" fill="#DE002B"/>
<path d="M21.4642 7.79705C21.4642 8.03958 21.2676 8.23619 21.0251 8.23619C20.7825 8.23619 20.5859 8.03958 20.5859 7.79705C20.5859 7.55452 20.7825 7.35791 21.0251 7.35791C21.2676 7.35791 21.4642 7.55452 21.4642 7.79705Z" fill="#DE002B"/>
</svg>
