<svg width="26" height="26" viewBox="0 0 26 26" fill="none" xmlns="http://www.w3.org/2000/svg">
<g clip-path="url(#clip0_142_39)">
<rect width="26" height="26" fill="white"/>
<circle cx="13.0778" cy="13.457" r="0.341728" transform="rotate(48.1101 13.0778 13.457)" fill="#DE002B" stroke="#DE002B" stroke-width="0.242517"/>
<path d="M21.4278 10.6842L21.5331 10.6459C22.1695 10.4142 22.35 9.59995 21.8711 9.12103L17.4356 4.68558C16.9429 4.19286 16.103 4.40039 15.8965 5.06588L13.8999 11.4993C13.6843 12.1939 14.3171 12.8545 15.0204 12.6691L16.5804 12.2578" stroke="#DE002B" stroke-width="0.925973" stroke-linecap="round"/>
<path d="M9.06558 23.1608L3.40194 17.4972C3.15057 17.2458 3.26454 16.8167 3.6075 16.7231L11.3253 14.6183C11.669 14.5245 11.9854 14.8379 11.8949 15.1826L9.90681 22.7523L9.83289 22.9777C9.72534 23.3057 9.30964 23.4049 9.06558 23.1608Z" fill="#DE002B" stroke="#DE002B" stroke-width="0.925973" stroke-linecap="round"/>
<path d="M3.33919 10.0656L9.00282 4.40194C9.25419 4.15057 9.68334 4.26454 9.77687 4.6075L11.8817 12.3253C11.9755 12.669 11.6621 12.9854 11.3174 12.8949L3.74772 10.9068L3.52231 10.8329C3.19432 10.7253 3.09512 10.3096 3.33919 10.0656Z" fill="#DE002B" stroke="#DE002B" stroke-width="0.925973" stroke-linecap="round"/>
<path d="M22.1608 17.4344L16.4972 23.0981C16.2458 23.3494 15.8167 23.2355 15.7231 22.8925L13.6183 15.1747C13.5245 14.831 13.8379 14.5146 14.1826 14.6051L21.7523 16.5932L21.9777 16.6671C22.3057 16.7747 22.4049 17.1904 22.1608 17.4344Z" stroke="#DE002B" stroke-width="0.925973" stroke-linecap="round"/>
<path d="M20.1817 11.4532C20.0412 11.5793 19.8252 11.5675 19.6992 11.427C19.5732 11.2865 19.5849 11.0705 19.7254 10.9445C19.8659 10.8184 20.0819 10.8302 20.208 10.9707C20.334 11.1112 20.3222 11.3272 20.1817 11.4532ZM19.0186 11.927C18.8781 12.053 18.662 12.0413 18.536 11.9008C18.41 11.7603 18.4217 11.5442 18.5622 11.4182C18.7027 11.2922 18.9188 11.3039 19.0448 11.4444C19.1708 11.5849 19.1591 11.801 19.0186 11.927Z" fill="#DE002B" stroke="#DE002B" stroke-width="0.242517"/>
<path d="M14.0593 14.4049C13.5169 14.9473 12.6374 14.9473 12.095 14.4049C11.5526 13.8625 11.5526 12.983 12.095 12.4406C12.6374 11.8982 13.5169 11.8982 14.0593 12.4406C14.6017 12.983 14.6017 13.8625 14.0593 14.4049Z" stroke="#DE002B" stroke-width="0.925973"/>
</g>
<defs>
<clipPath id="clip0_142_39">
<rect width="26" height="26" fill="white"/>
</clipPath>
</defs>
</svg>
