<svg width="26" height="26" viewBox="0 0 26 26" fill="none" xmlns="http://www.w3.org/2000/svg">
<rect width="26" height="26" fill="white"/>
<mask id="path-1-inside-1_142_41" fill="white">
<path fill-rule="evenodd" clip-rule="evenodd" d="M12.6113 2.76694C12.5607 2.6825 12.4383 2.6825 12.3876 2.76694L11.5336 4.19033C11.5254 4.20397 11.5198 4.21899 11.517 4.23465L11.0774 6.71223C11.0664 6.7745 11.0123 6.81988 10.949 6.81988H8.39154C8.31951 6.81988 8.26111 6.87828 8.26111 6.95031V7.38247C8.26111 7.43644 8.29435 7.48484 8.34472 7.50421L10.671 8.39891C10.7292 8.42134 10.7635 8.48194 10.7526 8.54344L10.3832 10.6252C10.3722 10.6874 10.318 10.7328 10.2548 10.7328H6.76007C6.68804 10.7328 6.62964 10.7912 6.62964 10.8632V11.291C6.62964 11.3471 6.66556 11.397 6.71883 11.4147L9.93949 12.4883C10.0009 12.5087 10.038 12.5711 10.0267 12.6348L9.57324 15.1905C9.5622 15.2527 9.50806 15.2981 9.44482 15.2981H5.13043C5.0584 15.2981 5 15.3565 5 15.4286V15.8406C5 15.904 5.04561 15.9582 5.10809 15.9691L9.17664 16.6767C9.24778 16.689 9.29534 16.7569 9.28272 16.828L8.00667 24.0203C7.98438 24.1459 8.13711 24.2255 8.22733 24.1353L8.9019 23.4607C8.90896 23.4537 8.91519 23.4458 8.92046 23.4373L12.2397 18.0951C12.2922 18.0106 12.4162 18.0136 12.4645 18.1006L15.4235 23.4307C15.4306 23.4435 15.4399 23.4551 15.4509 23.4649L16.2653 24.1888C16.3565 24.2698 16.4991 24.1924 16.4809 24.0718L16.091 21.4936L15.8692 20.0262L15.6473 18.5588L15.3936 16.8809C15.383 16.8108 15.4303 16.745 15.5002 16.7329L19.8919 15.9691C19.9544 15.9582 20 15.904 20 15.8406V15.4286C20 15.3565 19.9416 15.2981 19.8696 15.2981H15.2664C15.2019 15.2981 15.1471 15.251 15.1375 15.1872L14.7616 12.7014C14.7521 12.6387 14.7891 12.5782 14.8493 12.5581L18.2796 11.4147C18.3328 11.397 18.3688 11.3471 18.3688 11.291V10.8632C18.3688 10.7912 18.3104 10.7328 18.2383 10.7328H14.5761C14.5116 10.7328 14.4568 10.6857 14.4471 10.6219L14.1387 8.58196C14.1295 8.52144 14.1637 8.46269 14.2208 8.44072L16.6558 7.50421C16.7061 7.48484 16.7394 7.43644 16.7394 7.38247V6.95031C16.7394 6.87828 16.681 6.81988 16.6089 6.81988H13.9844C13.9199 6.81988 13.8651 6.77273 13.8555 6.70894L13.4816 4.23646C13.4791 4.21962 13.4732 4.20345 13.4645 4.18885L12.6113 2.76694ZM9.89182 15.624H14.9788C15.0508 15.624 15.1092 15.6824 15.1092 15.7545V16.0921C15.1092 16.1449 15.0773 16.1926 15.0285 16.2127L12.5474 17.2351C12.5173 17.2476 12.4835 17.2483 12.4529 17.237L9.6513 16.2108C9.59991 16.1919 9.56573 16.143 9.56573 16.0883V15.7545C9.56573 15.6824 9.62413 15.624 9.69617 15.624H9.89182ZM10.2176 7.32248C10.2176 7.25044 10.276 7.19204 10.348 7.19204H14.6524C14.7244 7.19204 14.7828 7.25044 14.7828 7.32248V7.47707C14.7828 7.53007 14.7507 7.5778 14.7017 7.59783L12.5495 8.47627C12.5179 8.48917 12.4825 8.48917 12.4509 8.47627L10.2987 7.59783C10.2497 7.5778 10.2176 7.53007 10.2176 7.47707V7.32248ZM14.7828 11.5151C14.7828 11.4431 14.7244 11.3847 14.6524 11.3847H10.348C10.276 11.3847 10.2176 11.4431 10.2176 11.5151V11.6697C10.2176 11.7227 10.2497 11.7705 10.2987 11.7905L12.4509 12.6689C12.4825 12.6818 12.5179 12.6818 12.5495 12.6689L14.7017 11.7905C14.7507 11.7705 14.7828 11.7227 14.7828 11.6697V11.5151Z"/>
</mask>
<path d="M7.99753 24.9134L15.4975 23.9351L15.371 22.9651L7.871 23.9433L7.99753 24.9134ZM16.091 21.4936L17.0583 21.3473L17.0583 21.3473L16.091 21.4936ZM15.8692 20.0262L14.9019 20.1724L14.9019 20.1724L15.8692 20.0262ZM15.6473 18.5588L16.6145 18.4125L16.6145 18.4125L15.6473 18.5588ZM10.2987 7.59783L9.92905 8.50355L10.2987 7.59783ZM12.5495 8.47627L12.1798 7.57055L12.5495 8.47627ZM12.4509 8.47627L12.8206 7.57055L12.4509 8.47627ZM14.7017 7.59783L15.0713 8.50355L14.7017 7.59783ZM9.6513 16.2108L9.31481 17.1293L9.6513 16.2108ZM12.4529 17.237L12.7894 16.3185L12.4529 17.237ZM15.0285 16.2127L15.4012 17.1172L15.0285 16.2127ZM13.4816 4.23646L12.5143 4.38272L13.4816 4.23646ZM13.4645 4.18885L12.6256 4.69216L13.4645 4.18885ZM13.8555 6.70894L12.8882 6.8552L13.8555 6.70894ZM14.1387 8.58196L15.1059 8.4357L14.1387 8.58196ZM14.2208 8.44072L14.572 9.35378L14.2208 8.44072ZM14.4471 10.6219L13.4799 10.7681L14.4471 10.6219ZM18.2796 11.4147L17.9702 10.4866L18.2796 11.4147ZM14.7616 12.7014L15.7288 12.5551L14.7616 12.7014ZM14.8493 12.5581L15.1587 13.4862L14.8493 12.5581ZM15.3936 16.8809L16.3608 16.7346L15.3936 16.8809ZM15.5002 16.7329L15.6678 17.6967L15.5002 16.7329ZM16.2653 24.1888L16.9152 23.4576L16.2653 24.1888ZM16.4809 24.0718L17.4482 23.9255L16.4809 24.0718ZM15.4235 23.4307L16.2788 22.9559L15.4235 23.4307ZM15.4509 23.4649L16.1008 22.7337L15.4509 23.4649ZM12.2397 18.0951L13.0706 18.6114L12.2397 18.0951ZM12.4645 18.1006L13.3198 17.6258L12.4645 18.1006ZM8.9019 23.4607L9.59363 24.1525L8.9019 23.4607ZM8.92046 23.4373L9.75139 23.9536L8.92046 23.4373ZM8.00667 24.0203L8.96988 24.1912L8.00667 24.0203ZM8.22733 24.1353L8.91906 24.827L8.22733 24.1353ZM9.17664 16.6767L9.34426 15.7129L9.17664 16.6767ZM9.28272 16.828L10.2459 16.9989L9.28272 16.828ZM5.10809 15.9691L5.2757 15.0053L5.10809 15.9691ZM9.57324 15.1905L10.5365 15.3614L9.57324 15.1905ZM9.93949 12.4883L9.63014 13.4163L9.93949 12.4883ZM10.0267 12.6348L9.06345 12.4639L10.0267 12.6348ZM6.71883 11.4147L6.40947 12.3428L6.71883 11.4147ZM10.3832 10.6252L11.3464 10.796L10.3832 10.6252ZM10.671 8.39891L10.3198 9.31197L10.671 8.39891ZM10.7526 8.54344L11.7158 8.71433L10.7526 8.54344ZM8.34472 7.50421L8.69589 6.59115L8.34472 7.50421ZM14.7017 11.7905L14.332 10.8848L14.7017 11.7905ZM15.1375 15.1872L16.1047 15.0409L15.1375 15.1872ZM12.4509 12.6689L12.8206 11.7632L12.4509 12.6689ZM12.5495 12.6689L12.1798 11.7632L12.5495 12.6689ZM11.0774 6.71223L10.1142 6.54133L11.0774 6.71223ZM10.2987 11.7905L10.6684 10.8848L10.2987 11.7905ZM12.3876 2.76694L13.2265 3.27025L12.3876 2.76694ZM12.6113 2.76694L11.7725 3.27025L12.6113 2.76694ZM19.8919 15.9691L20.0595 16.9329L19.8919 15.9691ZM11.5336 4.19033L12.3725 4.69364L11.5336 4.19033ZM11.517 4.23465L12.4802 4.40555L11.517 4.23465ZM12.3725 4.69364L13.2265 3.27025L11.5488 2.26363L10.6947 3.68702L12.3725 4.69364ZM12.0407 6.88312L12.4802 4.40555L10.5538 4.06376L10.1142 6.54133L12.0407 6.88312ZM8.39154 7.79814H10.949V5.84162H8.39154V7.79814ZM9.23937 7.38247V6.95031H7.28285V7.38247H9.23937ZM11.0221 7.48586L8.69589 6.59115L7.99354 8.41727L10.3198 9.31197L11.0221 7.48586ZM11.3464 10.796L11.7158 8.71433L9.78934 8.37255L9.42 10.4543L11.3464 10.796ZM6.76007 11.7111H10.2548V9.75454H6.76007V11.7111ZM7.6079 11.291V10.8632H5.65138V11.291H7.6079ZM10.2488 11.5602L7.02818 10.4866L6.40947 12.3428L9.63014 13.4163L10.2488 11.5602ZM10.5365 15.3614L10.9899 12.8057L9.06345 12.4639L8.61003 15.0196L10.5365 15.3614ZM5.13043 16.2764H9.44482V14.3199H5.13043V16.2764ZM5.97826 15.8406V15.4286H4.02174V15.8406H5.97826ZM9.34426 15.7129L5.2757 15.0053L4.94047 16.9329L9.00903 17.6405L9.34426 15.7129ZM8.96988 24.1912L10.2459 16.9989L8.3195 16.6571L7.04345 23.8494L8.96988 24.1912ZM8.21016 22.769L7.53559 23.4436L8.91906 24.827L9.59363 24.1525L8.21016 22.769ZM11.4088 17.5788L8.08952 22.921L9.75139 23.9536L13.0706 18.6114L11.4088 17.5788ZM16.2788 22.9559L13.3198 17.6258L11.6092 18.5755L14.5682 23.9055L16.2788 22.9559ZM16.9152 23.4576L16.1008 22.7337L14.8009 24.196L15.6153 24.9199L16.9152 23.4576ZM15.1238 21.6398L15.5136 24.218L17.4482 23.9255L17.0583 21.3473L15.1238 21.6398ZM14.9019 20.1724L15.1238 21.6398L17.0583 21.3473L16.8364 19.8799L14.9019 20.1724ZM14.68 18.705L14.9019 20.1724L16.8364 19.8799L16.6145 18.4125L14.68 18.705ZM14.4263 17.0271L14.68 18.705L16.6145 18.4125L16.3608 16.7346L14.4263 17.0271ZM19.7243 15.0053L15.3326 15.7691L15.6678 17.6967L20.0595 16.9329L19.7243 15.0053ZM19.0217 15.4286V15.8406H20.9783V15.4286H19.0217ZM15.2664 16.2764H19.8696V14.3199H15.2664V16.2764ZM13.7943 12.8476L14.1702 15.3334L16.1047 15.0409L15.7288 12.5551L13.7943 12.8476ZM17.9702 10.4866L14.5399 11.6301L15.1587 13.4862L18.5889 12.3428L17.9702 10.4866ZM17.3905 10.8632V11.291H19.347V10.8632H17.3905ZM14.5761 11.7111H18.2383V9.75454H14.5761V11.7111ZM13.1714 8.72822L13.4799 10.7681L15.4144 10.4756L15.1059 8.4357L13.1714 8.72822ZM16.3046 6.59115L13.8697 7.52767L14.572 9.35378L17.0069 8.41727L16.3046 6.59115ZM15.7611 6.95031V7.38247H17.7176V6.95031H15.7611ZM13.9844 7.79814H16.6089V5.84162H13.9844V7.79814ZM12.5143 4.38272L12.8882 6.8552L14.8227 6.56268L14.4489 4.0902L12.5143 4.38272ZM11.7725 3.27025L12.6256 4.69216L14.3033 3.68554L13.4502 2.26363L11.7725 3.27025ZM14.9788 14.6458H9.89182V16.6023H14.9788V14.6458ZM16.0875 16.0921V15.7545H14.131V16.0921H16.0875ZM12.9202 18.1396L15.4012 17.1172L14.6557 15.3082L12.1747 16.3307L12.9202 18.1396ZM9.31481 17.1293L12.1164 18.1556L12.7894 16.3185L9.98779 15.2922L9.31481 17.1293ZM8.58747 15.7545V16.0883H10.544V15.7545H8.58747ZM9.89182 14.6458H9.69617V16.6023H9.89182V14.6458ZM14.6524 6.21378H10.348V8.1703H14.6524V6.21378ZM15.7611 7.47707V7.32248H13.8045V7.47707H15.7611ZM12.9192 9.38199L15.0713 8.50355L14.332 6.69211L12.1798 7.57055L12.9192 9.38199ZM9.92905 8.50355L12.0812 9.38199L12.8206 7.57055L10.6684 6.69211L9.92905 8.50355ZM9.23933 7.32248V7.47707H11.1959V7.32248H9.23933ZM10.348 12.363H14.6524V10.4064H10.348V12.363ZM11.1959 11.6697V11.5151H9.23933V11.6697H11.1959ZM12.8206 11.7632L10.6684 10.8848L9.92905 12.6962L12.0812 13.5746L12.8206 11.7632ZM14.332 10.8848L12.1798 11.7632L12.9192 13.5746L15.0713 12.6962L14.332 10.8848ZM13.8045 11.5151V11.6697H15.7611V11.5151H13.8045ZM10.348 10.4064C9.73571 10.4064 9.23933 10.9028 9.23933 11.5151H11.1959C11.1959 11.9834 10.8163 12.363 10.348 12.363V10.4064ZM10.6684 6.69211C10.9874 6.8223 11.1959 7.13256 11.1959 7.47707H9.23933C9.23933 7.92758 9.51195 8.3333 9.92905 8.50355L10.6684 6.69211ZM12.1798 7.57055C12.3852 7.48672 12.6152 7.48672 12.8206 7.57055L12.0812 9.38199C12.3498 9.49161 12.6506 9.49161 12.9192 9.38199L12.1798 7.57055ZM13.8045 7.47707C13.8045 7.13256 14.013 6.8223 14.332 6.69211L15.0713 8.50355C15.4885 8.3333 15.7611 7.92758 15.7611 7.47707H13.8045ZM10.348 6.21378C9.73571 6.21378 9.23933 6.71016 9.23933 7.32248H11.1959C11.1959 7.79072 10.8163 8.1703 10.348 8.1703V6.21378ZM14.6524 8.1703C14.1841 8.1703 13.8045 7.79072 13.8045 7.32248H15.7611C15.7611 6.71016 15.2647 6.21378 14.6524 6.21378V8.1703ZM10.544 15.7545C10.544 16.2227 10.1644 16.6023 9.69617 16.6023V14.6458C9.08385 14.6458 8.58747 15.1422 8.58747 15.7545H10.544ZM9.98779 15.2922C10.3219 15.4146 10.544 15.7325 10.544 16.0883H8.58747C8.58747 16.5535 8.87795 16.9693 9.31481 17.1293L9.98779 15.2922ZM12.1747 16.3307C12.3708 16.2498 12.5902 16.2455 12.7894 16.3185L12.1164 18.1556C12.3769 18.251 12.6637 18.2453 12.9202 18.1396L12.1747 16.3307ZM14.131 16.0921C14.131 15.7486 14.3382 15.4391 14.6557 15.3082L15.4012 17.1172C15.8165 16.946 16.0875 16.5412 16.0875 16.0921H14.131ZM14.9788 16.6023C14.5105 16.6023 14.131 16.2227 14.131 15.7545H16.0875C16.0875 15.1422 15.5911 14.6458 14.9788 14.6458V16.6023ZM14.4489 4.0902C14.4272 3.94711 14.3778 3.80964 14.3033 3.68554L12.6256 4.69216C12.5687 4.59727 12.5309 4.49214 12.5143 4.38272L14.4489 4.0902ZM13.9844 5.84162C14.4037 5.84162 14.76 6.14811 14.8227 6.56268L12.8882 6.8552C12.9702 7.39734 13.4361 7.79814 13.9844 7.79814V5.84162ZM17.7176 6.95031C17.7176 6.338 17.2213 5.84162 16.6089 5.84162V7.79814C16.1407 7.79814 15.7611 7.41855 15.7611 6.95031H17.7176ZM17.0069 8.41727C17.4351 8.25258 17.7176 7.84122 17.7176 7.38247H15.7611C15.7611 7.03166 15.9772 6.71709 16.3046 6.59115L17.0069 8.41727ZM15.1059 8.4357C15.1654 8.82911 14.9434 9.21095 14.572 9.35378L13.8697 7.52767C13.384 7.71444 13.0936 8.21377 13.1714 8.72822L15.1059 8.4357ZM14.5761 9.75454C14.9954 9.75454 15.3517 10.061 15.4144 10.4756L13.4799 10.7681C13.5618 11.3103 14.0278 11.7111 14.5761 11.7111V9.75454ZM19.347 10.8632C19.347 10.2509 18.8507 9.75454 18.2383 9.75454V11.7111C17.7701 11.7111 17.3905 11.3315 17.3905 10.8632H19.347ZM18.5889 12.3428C19.0417 12.1919 19.347 11.7682 19.347 11.291H17.3905C17.3905 10.926 17.624 10.602 17.9702 10.4866L18.5889 12.3428ZM15.7288 12.5551C15.7905 12.9628 15.5498 13.3558 15.1587 13.4862L14.5399 11.6301C14.0284 11.8006 13.7137 12.3145 13.7943 12.8476L15.7288 12.5551ZM16.3608 16.7346C16.4297 17.1904 16.1219 17.6177 15.6678 17.6967L15.3326 15.7691C14.7387 15.8724 14.3362 16.4312 14.4263 17.0271L16.3608 16.7346ZM15.6153 24.9199C16.3907 25.6091 17.6032 24.9512 17.4482 23.9255L15.5136 24.218C15.395 23.4337 16.3223 22.9306 16.9152 23.4576L15.6153 24.9199ZM14.5682 23.9055C14.6288 24.0148 14.7075 24.113 14.8009 24.196L16.1008 22.7337C16.1722 22.7972 16.2324 22.8723 16.2788 22.9559L14.5682 23.9055ZM13.0706 18.6114C12.7293 19.1608 11.9232 19.141 11.6092 18.5755L13.3198 17.6258C12.9093 16.8863 11.8552 16.8604 11.4088 17.5788L13.0706 18.6114ZM9.59363 24.1525C9.65366 24.0924 9.70659 24.0257 9.75139 23.9536L8.08952 22.921C8.12378 22.8659 8.16426 22.8149 8.21016 22.769L9.59363 24.1525ZM7.04345 23.8494C6.85399 24.9172 8.1522 25.5939 8.91906 24.827L7.53559 23.4436C8.12201 22.8571 9.11476 23.3746 8.96988 24.1912L7.04345 23.8494ZM9.00903 17.6405C8.5466 17.56 8.23751 17.1192 8.3195 16.6571L10.2459 16.9989C10.3532 16.3945 9.94897 15.818 9.34426 15.7129L9.00903 17.6405ZM4.02174 15.8406C4.02174 16.3796 4.40942 16.8405 4.94047 16.9329L5.2757 15.0053C5.6818 15.0759 5.97826 15.4284 5.97826 15.8406H4.02174ZM5.13043 14.3199C4.51812 14.3199 4.02174 14.8162 4.02174 15.4286H5.97826C5.97826 15.8968 5.59868 16.2764 5.13043 16.2764V14.3199ZM8.61003 15.0196C8.68184 14.6148 9.03371 14.3199 9.44482 14.3199V16.2764C9.98241 16.2764 10.4425 15.8907 10.5365 15.3614L8.61003 15.0196ZM9.63014 13.4163C9.23117 13.2833 8.98999 12.878 9.06345 12.4639L10.9899 12.8057C11.086 12.2642 10.7706 11.7341 10.2488 11.5602L9.63014 13.4163ZM5.65138 11.291C5.65138 11.7682 5.95674 12.1919 6.40947 12.3428L7.02818 10.4866C7.37438 10.602 7.6079 10.926 7.6079 11.291H5.65138ZM6.76007 9.75454C6.14776 9.75454 5.65138 10.2509 5.65138 10.8632H7.6079C7.6079 11.3315 7.22832 11.7111 6.76007 11.7111V9.75454ZM9.42 10.4543C9.49182 10.0495 9.84368 9.75454 10.2548 9.75454V11.7111C10.7924 11.7111 11.2525 11.3254 11.3464 10.796L9.42 10.4543ZM10.3198 9.31197C9.94084 9.16622 9.71841 8.7723 9.78934 8.37255L11.7158 8.71433C11.8085 8.19158 11.5177 7.67645 11.0221 7.48586L10.3198 9.31197ZM7.28285 7.38247C7.28285 7.84122 7.56537 8.25258 7.99354 8.41727L8.69589 6.59115C9.02332 6.71709 9.23937 7.03166 9.23937 7.38247H7.28285ZM15.0713 12.6962C15.4885 12.526 15.7611 12.1202 15.7611 11.6697H13.8045C13.8045 11.3252 14.013 11.015 14.332 10.8848L15.0713 12.6962ZM8.39154 5.84162C7.77923 5.84162 7.28285 6.338 7.28285 6.95031H9.23937C9.23937 7.41855 8.85978 7.79814 8.39154 7.79814V5.84162ZM15.2664 14.3199C15.6857 14.3199 16.042 14.6263 16.1047 15.0409L14.1702 15.3334C14.2522 15.8756 14.7181 16.2764 15.2664 16.2764V14.3199ZM12.0812 13.5746C12.3498 13.6843 12.6506 13.6843 12.9192 13.5746L12.1798 11.7632C12.3852 11.6794 12.6152 11.6794 12.8206 11.7632L12.0812 13.5746ZM10.1142 6.54133C10.186 6.13655 10.5379 5.84162 10.949 5.84162V7.79814C11.4866 7.79814 11.9468 7.41246 12.0407 6.88312L10.1142 6.54133ZM20.9783 15.4286C20.9783 14.8162 20.4819 14.3199 19.8696 14.3199V16.2764C19.4013 16.2764 19.0217 15.8968 19.0217 15.4286H20.9783ZM9.23933 11.6697C9.23933 12.1202 9.51195 12.526 9.92905 12.6962L10.6684 10.8848C10.9874 11.015 11.1959 11.3252 11.1959 11.6697H9.23933ZM13.2265 3.27025C12.8972 3.81908 12.1018 3.81908 11.7725 3.27025L13.4502 2.26363C13.0196 1.54593 11.9794 1.54593 11.5488 2.26363L13.2265 3.27025ZM20.0595 16.9329C20.5906 16.8405 20.9783 16.3796 20.9783 15.8406H19.0217C19.0217 15.4284 19.3182 15.0759 19.7243 15.0053L20.0595 16.9329ZM14.6524 12.363C14.1841 12.363 13.8045 11.9834 13.8045 11.5151H15.7611C15.7611 10.9028 15.2647 10.4064 14.6524 10.4064V12.363ZM10.6947 3.68702C10.6252 3.80296 10.5774 3.93064 10.5538 4.06376L12.4802 4.40555C12.4622 4.50735 12.4256 4.60499 12.3725 4.69364L10.6947 3.68702Z" fill="#DE002B" mask="url(#path-1-inside-1_142_41)"/>
<path d="M16.6883 7.03358L18.0936 4.65012" stroke="#DE002B" stroke-width="0.844301" stroke-linecap="round"/>
<path d="M7.05221 10.8911L10.7237 3.94896" stroke="#DE002B" stroke-width="0.844301" stroke-linecap="round"/>
<path d="M18.9367 3.50201C18.9292 3.64062 18.8107 3.74688 18.6721 3.73935C18.5335 3.73182 18.4273 3.61335 18.4348 3.47474C18.4423 3.33613 18.5608 3.22987 18.6994 3.2374C18.838 3.24493 18.9443 3.3634 18.9367 3.50201Z" fill="#DE002B" stroke="#DE002B" stroke-width="0.341615"/>
<path d="M19.5676 2.45809C19.56 2.59669 19.4416 2.70295 19.3029 2.69542C19.1643 2.68789 19.0581 2.56942 19.0656 2.43081C19.0731 2.2922 19.1916 2.18595 19.3302 2.19348C19.4688 2.20101 19.5751 2.31948 19.5676 2.45809Z" fill="#DE002B" stroke="#DE002B" stroke-width="0.341615"/>
<path d="M10.0654 11.3135H15.1312V12.1578L12.5983 13.0021L10.0654 12.1578V11.3135Z" fill="#DE002B"/>
<path d="M9.15361 21.3677L10.1467 17.193L11.4909 17.7689L9.15361 21.3677Z" fill="#DE002B"/>
<path d="M15.1315 21.4449L14.5605 17.2234L13.2163 17.7993L15.1315 21.4449Z" fill="#DE002B"/>
</svg>
