<svg width="26" height="26" viewBox="0 0 26 26" fill="none" xmlns="http://www.w3.org/2000/svg">
<rect width="26" height="26" fill="white"/>
<rect x="11.8408" y="10.2651" width="0.48533" height="2.42665" transform="rotate(130.814 11.8408 10.2651)" fill="white"/>
<circle cx="15.923" cy="8.61008" r="0.548219" transform="rotate(3.11008 15.923 8.61008)" fill="#DE002B" stroke="#DE002B" stroke-width="0.389059"/>
<circle cx="18.1506" cy="8.61008" r="0.548219" transform="rotate(3.11008 18.1506 8.61008)" fill="#DE002B" stroke="#DE002B" stroke-width="0.389059"/>
<path d="M22.1597 11.8986C22.1497 12.0822 21.9928 12.223 21.8092 12.213C21.6255 12.2031 21.4847 12.0461 21.4947 11.8625C21.5047 11.6789 21.6617 11.5381 21.8453 11.5481C22.0289 11.558 22.1697 11.715 22.1597 11.8986Z" fill="#DE002B" stroke="#DE002B" stroke-width="0.389059"/>
<mask id="path-5-inside-1_142_42" fill="white">
<path d="M22.3549 13.4263C22.3391 13.7172 22.0905 13.9402 21.7996 13.9244C21.5087 13.9086 21.2857 13.6599 21.3015 13.369C21.3173 13.0781 21.5659 12.8551 21.8568 12.8709C22.1477 12.8867 22.3707 13.1354 22.3549 13.4263Z"/>
</mask>
<path d="M22.3549 13.4263C22.3391 13.7172 22.0905 13.9402 21.7996 13.9244C21.5087 13.9086 21.2857 13.6599 21.3015 13.369C21.3173 13.0781 21.5659 12.8551 21.8568 12.8709C22.1477 12.8867 22.3707 13.1354 22.3549 13.4263Z" fill="#DE002B"/>
<path d="M21.3015 13.369C21.3173 13.0781 21.5659 12.8551 21.8568 12.8709L21.7423 14.9779C22.6151 15.0253 23.361 14.3562 23.4084 13.4835L21.3015 13.369ZM21.8568 12.8709C22.1477 12.8867 22.3707 13.1354 22.3549 13.4263L20.248 13.3118C20.2006 14.1845 20.8696 14.9304 21.7423 14.9779L21.8568 12.8709ZM22.3549 13.4263C22.3391 13.7172 22.0905 13.9402 21.7996 13.9244L21.9141 11.8174C21.0413 11.77 20.2954 12.4391 20.248 13.3118L22.3549 13.4263ZM21.7996 13.9244C21.5087 13.9086 21.2857 13.6599 21.3015 13.369L23.4084 13.4835C23.4558 12.6108 22.7868 11.8649 21.9141 11.8174L21.7996 13.9244Z" fill="#DE002B" mask="url(#path-5-inside-1_142_42)"/>
<circle cx="15.4058" cy="14.7827" r="0.242665" stroke="#DE002B" stroke-width="5.96046e-08"/>
<path d="M21.826 14.8307V15.202C21.826 16.4327 20.8283 17.4303 19.5977 17.4303H6.22824C4.99762 17.4303 4 16.4327 4 15.202V8.51731C4 7.28668 4.99762 6.28906 6.22825 6.28906H20.3405C21.1609 6.28906 21.826 6.95414 21.826 7.77456V7.77456V8.27497" stroke="#DE002B" stroke-width="0.905541" stroke-linecap="round"/>
<path d="M9.94197 3.52751H15.884C16.0028 3.52751 16.0992 3.62388 16.0992 3.74275V5.97099C16.0992 6.08986 16.0028 6.18623 15.884 6.18623H9.94197C9.8231 6.18623 9.72673 6.08987 9.72673 5.97099V3.74275C9.72673 3.62388 9.8231 3.52751 9.94197 3.52751Z" stroke="#DE002B" stroke-width="1.05503"/>
<mask id="path-10-inside-2_142_42" fill="white">
<path d="M6.22852 18.0109C6.22852 17.7196 6.46469 17.4834 6.75603 17.4834V17.4834C7.04737 17.4834 7.28354 17.7196 7.28354 18.0109V20.7731C7.28354 20.856 7.26402 20.9377 7.22655 21.0116V21.0116C7.03123 21.397 6.48083 21.397 6.28551 21.0116V21.0116C6.24804 20.9377 6.22852 20.856 6.22852 20.7731V18.0109Z"/>
</mask>
<path d="M5.79805 18.0109V20.7731H8.76904V18.0109H5.79805ZM7.71401 20.7731V18.0109H4.74302V20.7731H7.71401ZM5.90154 20.34C6.25626 19.6402 7.2558 19.6402 7.61052 20.34L4.9605 21.6832C5.70587 23.1537 7.80619 23.1537 8.55156 21.6832L5.90154 20.34ZM4.74302 20.7731C4.74302 21.0893 4.81752 21.4011 4.9605 21.6832L7.61052 20.34C7.67856 20.4742 7.71401 20.6226 7.71401 20.7731H4.74302ZM5.79805 20.7731C5.79805 20.6226 5.8335 20.4742 5.90154 20.34L8.55156 21.6832C8.69453 21.4011 8.76904 21.0893 8.76904 20.7731H5.79805ZM6.75603 18.9689C6.22695 18.9689 5.79805 18.54 5.79805 18.0109H8.76904C8.76904 16.8992 7.86778 15.9979 6.75603 15.9979V18.9689ZM6.75603 15.9979C5.64428 15.9979 4.74302 16.8992 4.74302 18.0109H7.71401C7.71401 18.54 7.28511 18.9689 6.75603 18.9689V15.9979Z" fill="#DE002B" mask="url(#path-10-inside-2_142_42)"/>
<path fill-rule="evenodd" clip-rule="evenodd" d="M19.2363 22.1734C20.6721 22.1734 21.836 21.0095 21.836 19.5737C21.836 18.138 20.6721 16.9741 19.2363 16.9741C17.8006 16.9741 16.6367 18.138 16.6367 19.5737C16.6367 21.0095 17.8006 22.1734 19.2363 22.1734ZM19.4495 18.9189C19.3294 19.1268 19.0293 19.1268 18.9092 18.9189L18.3506 17.9514C18.2306 17.7435 18.3807 17.4835 18.6208 17.4835L19.7379 17.4835C19.978 17.4835 20.1281 17.7435 20.0081 17.9514L19.4495 18.9189ZM19.4495 19.8547C19.3294 19.6468 19.0293 19.6468 18.9092 19.8547L18.3506 20.8222C18.2306 21.0301 18.3807 21.2901 18.6208 21.2901H19.7379C19.978 21.2901 20.1281 21.0301 20.0081 20.8222L19.4495 19.8547ZM19.6471 19.6568C19.4392 19.5368 19.4392 19.2366 19.6471 19.1165L20.6146 18.558C20.8225 18.4379 21.0825 18.588 21.0825 18.8281L21.0825 19.9452C21.0825 20.1854 20.8225 20.3355 20.6146 20.2154L19.6471 19.6568ZM18.7113 19.1165C18.9192 19.2366 18.9192 19.5368 18.7113 19.6568L17.7438 20.2154C17.5359 20.3355 17.2759 20.1854 17.2759 19.9452L17.2759 18.8281C17.2759 18.588 17.5359 18.4379 17.7439 18.558L18.7113 19.1165Z" fill="#DE002B"/>
<path fill-rule="evenodd" clip-rule="evenodd" d="M5.40855 6.16943C4.82587 6.16943 4.35352 6.64179 4.35352 7.22446L4.35352 16.0598C4.35352 16.6107 4.77743 17.0689 5.3267 17.1117L12.7119 17.6863C13.325 17.734 13.8488 17.2494 13.8488 16.6344V7.22446C13.8488 6.64179 13.3764 6.16943 12.7937 6.16943H5.40855ZM5.78631 14.1102C5.47866 14.1102 5.22925 14.3596 5.22925 14.6672C5.22925 14.9749 5.47866 15.2243 5.78631 15.2243H10.4877C10.7953 15.2243 11.0447 14.9749 11.0447 14.6672C11.0447 14.3596 10.7953 14.1102 10.4877 14.1102H5.78631ZM5.22925 12.2004C5.22925 11.8928 5.47866 11.6434 5.78631 11.6434H10.4877C10.7953 11.6434 11.0447 11.8928 11.0447 12.2004C11.0447 12.5081 10.7953 12.7575 10.4877 12.7575H5.78631C5.47866 12.7575 5.22925 12.5081 5.22925 12.2004ZM5.78631 9.17658C5.47866 9.17658 5.22925 9.42598 5.22925 9.73364C5.22925 10.0413 5.47866 10.2907 5.78631 10.2907H10.4877C10.7953 10.2907 11.0447 10.0413 11.0447 9.73364C11.0447 9.42598 10.7953 9.17658 10.4877 9.17658H5.78631Z" fill="#DE002B"/>
</svg>
