<svg width="26" height="26" viewBox="0 0 26 26" fill="none" xmlns="http://www.w3.org/2000/svg">
<rect width="26" height="26" fill="white"/>
<path fill-rule="evenodd" clip-rule="evenodd" d="M7.16424 14.5478C8.06283 15.0093 9.14751 15.3675 10.3478 15.594C10.4538 15.614 10.5607 15.633 10.6684 15.6509C11.777 15.8355 12.9363 15.9027 14.0798 15.854L15.2377 15.7642C15.7124 15.7104 16.1802 15.636 16.6362 15.5412C16.7658 15.5142 16.8939 15.4857 17.0205 15.4557C17.9659 15.2314 18.822 14.9233 19.5528 14.548C20.1604 14.2359 20.6815 13.8773 21.0954 13.4818C22.0736 12.5468 22.3913 11.4641 21.9936 10.4207C21.665 9.55846 20.865 8.76781 19.6998 8.14018C19.3769 7.96627 19.3394 7.49814 19.6487 7.3012C19.7748 7.22091 19.9328 7.20722 20.0693 7.26822C21.8075 8.04497 22.9967 9.10217 23.4426 10.2722C23.5356 10.5163 23.5951 10.7622 23.6216 11.0082C23.6692 11.0832 23.6968 11.1722 23.6968 11.2677V15.2074C23.6968 15.3084 23.6659 15.4023 23.613 15.48C23.4425 16.7592 22.3867 17.9685 20.6269 18.881C18.6992 19.8806 16.0847 20.4421 13.3586 20.4421C10.6325 20.4421 8.01805 19.8806 6.09039 18.881C4.39733 18.0031 3.35589 16.8506 3.12748 15.6253C3.04832 15.539 3 15.4239 3 15.2976V11.2769C3 11.1667 3.03673 11.0651 3.09862 10.9837C3.11179 10.8709 3.1319 10.758 3.15903 10.6453C3.45573 9.41274 4.57337 8.27262 6.31888 7.4219C6.46441 7.35097 6.61354 7.28242 6.76605 7.21631C6.81874 7.19347 6.87183 7.17092 6.92532 7.14867C8.37573 6.5451 10.1156 6.15672 11.9585 6.02534C12.0881 6.0161 12.2183 6.00813 12.3489 6.00144L12.3679 6.00048C12.5664 5.99051 12.7372 6.13743 12.761 6.33483C12.7873 6.55367 12.6243 6.74816 12.4064 6.76806L12.3928 6.76908C12.2665 6.7763 12.1408 6.78493 12.0156 6.79495C10.2652 6.93508 8.63007 7.34654 7.33046 7.97994C7.27439 8.00726 7.21907 8.03494 7.16452 8.06296C5.76496 8.78177 4.86919 9.7243 4.62466 10.7402C4.37059 11.7956 4.83546 12.8639 5.93896 13.7606C6.29221 14.0476 6.70379 14.3113 7.16424 14.5478ZM3.96998 13.4749L3.96998 15.1848L6.81801 15.4169C6.80036 15.4094 6.78277 15.4018 6.76522 15.3942C5.96414 15.0469 5.26395 14.6358 4.69388 14.1726C4.41812 13.9485 4.17652 13.7153 3.96998 13.4749ZM19.9406 15.3992L22.7268 15.183V13.4988C22.6243 13.6166 22.5132 13.7327 22.3936 13.847C21.7706 14.4424 20.9396 14.9661 19.9521 15.3942C19.9483 15.3959 19.9445 15.3975 19.9406 15.3992ZM18.4284 11.4962C18.4284 11.4962 18.4284 11.4965 18.4284 11.4972L18.428 11.4996C18.4281 11.4973 18.4283 11.4962 18.4284 11.4962ZM18.4277 11.501C18.4238 11.4828 18.3998 11.4124 18.2719 11.2914C18.0974 11.1264 17.7948 10.9348 17.3433 10.7542C16.4456 10.395 15.1411 10.152 13.6528 10.152C12.1644 10.152 10.86 10.395 9.96219 10.7542C9.51071 10.9348 9.2081 11.1264 9.03366 11.2914C8.90572 11.4124 8.88168 11.4828 8.8778 11.501C8.88168 11.5192 8.90572 11.5896 9.03366 11.7106C9.2081 11.8755 9.51071 12.0672 9.96219 12.2478C10.86 12.6069 12.1644 12.8499 13.6528 12.8499C15.1411 12.8499 16.4456 12.6069 17.3433 12.2478C17.7948 12.0672 18.0974 11.8755 18.2719 11.7106C18.3998 11.5896 18.4238 11.5192 18.4277 11.501ZM8.87716 11.4962C8.87725 11.4962 8.87745 11.4973 8.87752 11.4996C8.87711 11.4973 8.87708 11.4962 8.87716 11.4962ZM8.87716 11.5057C8.87708 11.5057 8.87711 11.5046 8.87752 11.5024C8.87745 11.5046 8.87725 11.5057 8.87716 11.5057ZM18.428 11.5024C18.4284 11.5046 18.4285 11.5057 18.4284 11.5057C18.4283 11.5057 18.4281 11.5046 18.428 11.5024ZM13.6528 13.7852C16.8066 13.7852 19.3632 12.7625 19.3632 11.501C19.3632 10.2395 16.8066 9.21679 13.6528 9.21679C10.499 9.21679 7.9423 10.2395 7.9423 11.501C7.9423 12.7625 10.499 13.7852 13.6528 13.7852Z" fill="#DE002B"/>
<path d="M3.63086 13.1274L5.85405 14.1318L7.14071 15.6345H3.63086V13.1274Z" fill="#DE002B"/>
<path d="M23.0938 13.1274L20.942 14.1318L19.5839 15.6345H23.0938V13.1274Z" fill="#DE002B"/>
<path d="M17.3192 6.54062C17.3192 6.54939 17.3121 6.55651 17.3033 6.55651C17.2945 6.55651 17.2874 6.54939 17.2874 6.54062C17.2874 6.53184 17.2945 6.52473 17.3033 6.52473C17.3121 6.52473 17.3192 6.53184 17.3192 6.54062Z" fill="#DE002B" stroke="#DE002B" stroke-width="0.783833"/>
<path d="M18.5106 6.96347C18.5106 6.97224 18.5035 6.97936 18.4947 6.97936C18.4859 6.97936 18.4788 6.97224 18.4788 6.96347C18.4788 6.95469 18.4859 6.94758 18.4947 6.94758C18.5035 6.94758 18.5106 6.95469 18.5106 6.96347Z" fill="#DE002B" stroke="#DE002B" stroke-width="0.783833"/>
<path d="M17.679 12.5001C16.8634 11.6845 14.7653 11.4275 13.4124 11.443C12.0594 11.4586 10.3385 11.6845 9.93066 12.5001" stroke="#DE002B" stroke-width="0.935241"/>
</svg>
