<svg width="26" height="26" viewBox="0 0 26 26" fill="none" xmlns="http://www.w3.org/2000/svg">
<rect width="26" height="26" fill="white"/>
<path d="M6.80629 6.79724L14.406 5.48694C14.8312 5.41364 15.2627 5.38419 15.6939 5.39906L22.353 5.62868C23.4535 5.66663 24.326 6.56973 24.326 7.67085C24.326 8.77197 23.4535 9.67507 22.353 9.71302L15.0262 9.96567L6.93939 9.40796C6.24911 9.36035 5.71348 8.78651 5.71348 8.09459C5.71348 7.45382 6.17483 6.90611 6.80629 6.79724Z" stroke="#DE002B" stroke-width="0.751177"/>
<path d="M19.6949 16.6851L19.4786 17.8313C19.362 18.4493 18.8221 18.8969 18.1931 18.8969V18.8969C17.5273 18.8969 16.9677 18.3968 16.8931 17.7352L16.0225 10.008L20.1998 9.88281V11.5381" stroke="#DE002B" stroke-width="0.751177" stroke-linecap="round"/>
<rect x="2.16693" y="8.17132" width="3.67242" height="0.333856" rx="0.166928" stroke="#DE002B" stroke-width="0.333856" stroke-linejoin="round"/>
<path d="M14.7705 10.634C14.7705 10.2191 15.1068 9.88281 15.5217 9.88281V9.88281C15.9365 9.88281 16.2729 10.2191 16.2729 10.634V10.634C16.2729 11.0489 15.9365 11.3852 15.5217 11.3852V11.3852C15.1068 11.3852 14.7705 11.0489 14.7705 10.634V10.634Z" fill="#DE002B"/>
<path d="M15.5215 11.3849C15.5215 11.1774 15.6896 11.0093 15.8971 11.0093V11.0093C16.1045 11.0093 16.2727 11.1774 16.2727 11.3849V11.3849C16.2727 11.5923 16.1045 11.7605 15.8971 11.7605V11.7605C15.6896 11.7605 15.5215 11.5923 15.5215 11.3849V11.3849Z" fill="#DE002B"/>
<path d="M9.93814 9.00905L9.93655 9.00889L7.08407 8.73285C6.72042 8.69765 6.43117 8.41248 6.39083 8.04937C6.34476 7.63474 6.63626 7.25847 7.04924 7.19947L12.0491 6.48521C11.3824 7.19502 11.381 8.32793 12.0916 9.03853L12.2981 9.24504L9.93814 9.00905ZM15.3135 18.1876H20.6552C21.1162 18.1876 21.4898 18.5613 21.4898 19.0223V20.3577C21.4898 20.8186 21.1162 21.1923 20.6552 21.1923H15.3135C14.8525 21.1923 14.4788 20.8186 14.4788 20.3577V19.0223C14.4788 18.5613 14.8525 18.1876 15.3135 18.1876Z" fill="#DE002B" stroke="#DE002B" stroke-width="1.00157"/>
<path d="M20.2414 15.5538C20.2414 15.7612 20.0733 15.9294 19.8658 15.9294C19.6584 15.9294 19.4902 15.7612 19.4902 15.5538C19.4902 15.3464 19.6584 15.1782 19.8658 15.1782C20.0733 15.1782 20.2414 15.3464 20.2414 15.5538Z" fill="#DE002B"/>
<path d="M20.4035 14.3897C20.4035 14.5972 20.2354 14.7653 20.0279 14.7653C19.8205 14.7653 19.6523 14.5972 19.6523 14.3897C19.6523 14.1823 19.8205 14.0142 20.0279 14.0142C20.2354 14.0142 20.4035 14.1823 20.4035 14.3897Z" fill="#DE002B"/>
</svg>
