<svg width="26" height="26" viewBox="0 0 26 26" fill="none" xmlns="http://www.w3.org/2000/svg">
<rect width="26" height="26" fill="white"/>
<path d="M20.9463 10.4506L19.239 11.3819C19.1462 11.4325 19.1101 11.5476 19.1574 11.6421V11.6421C19.205 11.7374 19.1681 11.8532 19.0741 11.9033L14.4257 14.3824C14.2628 14.4693 14.2089 14.6717 14.224 14.8557C14.2561 15.2476 13.9939 15.5707 13.8123 15.7155C13.7991 15.726 13.7855 15.7346 13.7707 15.7426C10.924 17.2798 5.13805 20.3987 4.59437 20.6705M23.4747 9.07818L23.7365 8.96373C23.8049 8.93383 23.8624 8.88271 23.8948 8.81549C24.1446 8.29802 24.2631 7.49328 23.0437 7.71509C23.009 7.7214 22.9746 7.73402 22.9438 7.75114L18.5493 10.1925C18.4631 10.2404 18.3545 10.2067 18.3104 10.1186V10.1186C18.2632 10.0242 18.1433 9.99369 18.0567 10.054L13.6257 13.1397C13.4553 13.2584 13.2192 13.1983 13.1263 13.0125L12.5201 11.7999C12.4317 11.6231 12.5119 11.4083 12.6946 11.3328L17.5241 9.33516C17.6245 9.29363 17.6686 9.17562 17.62 9.07844V9.07844C17.5751 8.98859 17.6091 8.87931 17.697 8.83079L22.3955 6.23853C22.4503 6.20831 22.4965 6.16407 22.5238 6.10776C22.7193 5.70399 22.8101 5.03878 21.8813 5.00163C21.8268 4.99945 21.7727 5.01306 21.7243 5.03808L17.0264 7.46804C16.9339 7.51586 16.8202 7.47882 16.7737 7.38572V7.38572C16.7267 7.2918 16.6115 7.25508 16.5189 7.3045L11.9134 9.76073C11.7344 9.8562 11.5106 9.76418 11.3483 9.64239C11.1254 9.47503 10.7542 9.41003 10.2153 9.7693C9.39774 10.3144 3.85629 13.6668 1.18775 15.0862C0.960641 15.1998 0.915219 15.8156 1.18775 16.3607" stroke="#DE002B" stroke-width="0.79665" stroke-linecap="round"/>
<path d="M13.5283 13.5166C13.4033 13.3164 13.4627 13.0529 13.6616 12.9258L16.0908 11.3733L17.6634 10.2078C17.9876 9.96748 18.4486 10.0602 18.6548 10.4072L19.0956 11.149C19.294 11.4829 19.1735 11.9149 18.831 12.0979L16.8525 13.1552L14.6467 14.2399C14.3106 14.4052 13.9041 14.2682 13.7366 13.9332L13.5283 13.5166V13.5166Z" fill="#DE002B"/>
<path d="M11.8389 10.5286C11.6739 10.1923 11.8113 9.78581 12.1466 9.61869L14.3167 8.53698L16.2092 7.4862C16.5296 7.30829 16.9334 7.41573 17.123 7.72935L17.4095 8.20318C17.6113 8.53697 17.4922 8.97175 17.1485 9.15611L15.1755 10.2143L12.9876 11.3102C12.6492 11.4797 12.2375 11.3409 12.0708 11.0012L11.957 10.7693L11.8389 10.5286Z" fill="#DE002B"/>
<path d="M22.6803 9.66093C22.6803 9.82181 22.5498 9.95223 22.389 9.95223C22.2281 9.95223 22.0977 9.82181 22.0977 9.66093C22.0977 9.50005 22.2281 9.36963 22.389 9.36963C22.5498 9.36963 22.6803 9.50005 22.6803 9.66093Z" fill="#DE002B"/>
<path d="M21.8853 10.1136C21.8853 10.2744 21.7549 10.4049 21.594 10.4049C21.4332 10.4049 21.3027 10.2744 21.3027 10.1136C21.3027 9.95268 21.4332 9.82227 21.594 9.82227C21.7549 9.82227 21.8853 9.95268 21.8853 10.1136Z" fill="#DE002B"/>
</svg>
