<svg width="26" height="26" viewBox="0 0 26 26" fill="none" xmlns="http://www.w3.org/2000/svg">
<rect width="26" height="26" fill="white"/>
<path d="M15.4276 4.27962V3.83636C15.4276 2.82217 14.6054 2 13.5912 2V2C12.5771 2 11.7549 2.82217 11.7549 3.83636V18.5273H15.4276V10.8335" stroke="#DE002B" stroke-width="0.918182" stroke-linecap="round"/>
<circle cx="13.4889" cy="19.9552" r="4.20833" fill="#DE002B" stroke="#DE002B" stroke-width="0.561111"/>
<rect x="11.7549" y="13.9365" width="3.67273" height="5.50909" fill="#DE002B"/>
<path d="M12.9279 11.8191C13.0828 11.8191 13.2084 11.6935 13.2084 11.5386C13.2084 11.3836 13.0828 11.258 12.9279 11.258V11.8191ZM11.8057 11.8191H12.0862V11.258H11.8057V11.8191ZM12.0862 11.8191H12.9279V11.258H12.0862V11.8191Z" fill="#DE002B"/>
<path d="M13.489 12.6614C13.6439 12.6614 13.7696 12.5358 13.7696 12.3809C13.7696 12.2259 13.6439 12.1003 13.489 12.1003V12.6614ZM11.8057 12.6614H13.489V12.1003H11.8057V12.6614Z" fill="#DE002B"/>
<path d="M13.489 10.4168C13.6439 10.4168 13.7696 10.2912 13.7696 10.1362C13.7696 9.98128 13.6439 9.85567 13.489 9.85567V10.4168ZM11.8057 10.4168H13.489V9.85567H11.8057V10.4168Z" fill="#DE002B"/>
<path d="M12.9279 9.57499C13.0828 9.57499 13.2084 9.44938 13.2084 9.29443C13.2084 9.13949 13.0828 9.01388 12.9279 9.01388L12.9279 9.57499ZM11.8057 9.57499L12.9279 9.57499L12.9279 9.01388L11.8057 9.01388L11.8057 9.57499Z" fill="#DE002B"/>
<path d="M12.9279 7.33036C13.0828 7.33036 13.2084 7.20475 13.2084 7.0498C13.2084 6.89486 13.0828 6.76925 12.9279 6.76925L12.9279 7.33036ZM11.8057 7.33036L12.9279 7.33036L12.9279 6.76925L11.8057 6.76925L11.8057 7.33036Z" fill="#DE002B"/>
<path d="M13.489 8.17216C13.6439 8.17216 13.7696 8.04655 13.7696 7.8916C13.7696 7.73666 13.6439 7.61105 13.489 7.61105V8.17216ZM11.8057 8.17216H13.489V7.61105H11.8057V8.17216Z" fill="#DE002B"/>
<path d="M15.8928 9.42345C15.8928 9.677 15.6872 9.88254 15.4337 9.88254C15.1802 9.88254 14.9746 9.677 14.9746 9.42345C14.9746 9.1699 15.1802 8.96436 15.4337 8.96436C15.6872 8.96436 15.8928 9.1699 15.8928 9.42345Z" fill="#DE002B"/>
<path d="M15.886 7.96837C15.886 8.22192 15.6804 8.42746 15.4269 8.42746C15.1733 8.42746 14.9678 8.22192 14.9678 7.96837C14.9678 7.71482 15.1733 7.50928 15.4269 7.50928C15.6804 7.50928 15.886 7.71482 15.886 7.96837Z" fill="#DE002B"/>
</svg>
