<svg width="26" height="26" viewBox="0 0 26 26" fill="none" xmlns="http://www.w3.org/2000/svg">
<rect width="26" height="26" fill="white"/>
<path d="M11.8428 19.4693L10.7117 21.4993C10.3369 22.1719 9.48774 22.4134 8.81506 22.0386L8.00307 21.5862C7.33039 21.2114 7.08891 20.3622 7.46372 19.6895L13.1191 9.53955L16.3671 11.3493L14.2181 15.2063" stroke="#DE002B" stroke-width="0.697152" stroke-linecap="round"/>
<path d="M13.1671 7.30522L18.242 10.1329L17.1488 12.0951C16.8677 12.5996 16.2308 12.7807 15.7263 12.4996L12.4783 10.6898C11.9738 10.4087 11.7927 9.77186 12.0738 9.26735L13.1671 7.30522Z" fill="#DE002B" stroke="#DE002B" stroke-width="0.697152"/>
<path d="M21.9401 9.93265C21.9031 9.99894 21.7865 10.1095 21.4409 10.1587C21.1045 10.2067 20.6367 10.181 20.0574 10.0652C18.9042 9.8346 17.4155 9.2686 15.8764 8.41109C14.3374 7.55357 13.0728 6.58541 12.2699 5.7261C11.8666 5.29441 11.5986 4.91013 11.4623 4.59884C11.3224 4.27908 11.355 4.12169 11.392 4.05541C11.4289 3.98912 11.5456 3.87854 11.8911 3.82931C12.2275 3.78139 12.6953 3.80705 13.2746 3.92289C14.4278 4.15346 15.9166 4.71946 17.4556 5.57697C18.9946 6.43449 20.2592 7.40265 21.0621 8.26196C21.4654 8.69365 21.7334 9.07793 21.8697 9.38922C22.0096 9.70898 21.977 9.86637 21.9401 9.93265Z" stroke="#DE002B" stroke-width="0.938552"/>
<path d="M12.6464 18.7429C12.5527 18.9111 12.3404 18.9715 12.1722 18.8778C12.004 18.7841 11.9437 18.5718 12.0374 18.4036C12.1311 18.2354 12.3434 18.1751 12.5115 18.2688C12.6797 18.3625 12.7401 18.5748 12.6464 18.7429Z" fill="#DE002B"/>
<path d="M13.2225 17.7107C13.1288 17.8789 12.9165 17.9393 12.7484 17.8456C12.5802 17.7519 12.5198 17.5396 12.6135 17.3714C12.7072 17.2032 12.9195 17.1429 13.0877 17.2366C13.2559 17.3303 13.3162 17.5425 13.2225 17.7107Z" fill="#DE002B"/>
</svg>
