<svg width="26" height="26" viewBox="0 0 26 26" fill="none" xmlns="http://www.w3.org/2000/svg">
<rect width="26" height="26" fill="white"/>
<rect x="13.0869" y="14.0381" width="5.35055" height="2.00646" rx="1.00323" fill="#DE002B"/>
<mask id="path-2-inside-1_142_31" fill="white">
<path fill-rule="evenodd" clip-rule="evenodd" d="M14.9887 4.29932H10.3887V8.516H14.9887V4.29932ZM12.418 6.53586C12.7868 6.55791 13.1021 6.24688 13.1221 5.84116C13.1422 5.43544 12.8594 5.08867 12.4906 5.06663C12.1217 5.04458 11.8065 5.35561 11.7864 5.76133C11.7664 6.16705 12.0492 6.51382 12.418 6.53586Z"/>
</mask>
<path fill-rule="evenodd" clip-rule="evenodd" d="M14.9887 4.29932H10.3887V8.516H14.9887V4.29932ZM12.418 6.53586C12.7868 6.55791 13.1021 6.24688 13.1221 5.84116C13.1422 5.43544 12.8594 5.08867 12.4906 5.06663C12.1217 5.04458 11.8065 5.35561 11.7864 5.76133C11.7664 6.16705 12.0492 6.51382 12.418 6.53586Z" fill="#DE002B"/>
<path d="M10.3887 4.29932V3.98291H10.0723V4.29932H10.3887ZM14.9887 4.29932H15.3051V3.98291H14.9887V4.29932ZM10.3887 8.516H10.0723V8.8324H10.3887V8.516ZM14.9887 8.516V8.8324H15.3051V8.516H14.9887ZM13.1221 5.84116L12.8061 5.82555L13.1221 5.84116ZM12.418 6.53586L12.3991 6.8517L12.418 6.53586ZM12.4906 5.06663L12.4717 5.38247L12.4717 5.38247L12.4906 5.06663ZM11.7864 5.76133L11.4704 5.74572L11.4704 5.74572L11.7864 5.76133ZM10.3887 4.61572H14.9887V3.98291H10.3887V4.61572ZM10.7051 8.516V4.29932H10.0723V8.516H10.7051ZM14.9887 8.19959H10.3887V8.8324H14.9887V8.19959ZM14.6723 4.29932V8.516H15.3051V4.29932H14.6723ZM12.8061 5.82555C12.7933 6.08475 12.6021 6.2299 12.4369 6.22002L12.3991 6.8517C12.9716 6.88592 13.4109 6.409 13.4381 5.85677L12.8061 5.82555ZM12.4717 5.38247C12.6403 5.39254 12.819 5.56469 12.8061 5.82555L13.4381 5.85677C13.4653 5.30619 13.0785 4.7848 12.5094 4.75079L12.4717 5.38247ZM12.1025 5.77694C12.1153 5.51774 12.3065 5.37259 12.4717 5.38247L12.5094 4.75079C11.937 4.71657 11.4977 5.19349 11.4704 5.74572L12.1025 5.77694ZM12.4369 6.22002C12.2683 6.20994 12.0896 6.0378 12.1025 5.77694L11.4704 5.74572C11.4432 6.29629 11.83 6.81769 12.3991 6.8517L12.4369 6.22002Z" fill="#DE002B" mask="url(#path-2-inside-1_142_31)"/>
<mask id="path-4-inside-2_142_31" fill="white">
<path fill-rule="evenodd" clip-rule="evenodd" d="M14.9887 21.5494L10.3887 20.7827V24.6161L14.9887 24.9994V21.5494ZM12.589 23.6881C12.9579 23.7081 13.2731 23.4254 13.2932 23.0565C13.3132 22.6877 13.0304 22.3724 12.6616 22.3524C12.2928 22.3324 11.9775 22.6151 11.9575 22.984C11.9375 23.3528 12.2202 23.668 12.589 23.6881Z"/>
</mask>
<path fill-rule="evenodd" clip-rule="evenodd" d="M14.9887 21.5494L10.3887 20.7827V24.6161L14.9887 24.9994V21.5494ZM12.589 23.6881C12.9579 23.7081 13.2731 23.4254 13.2932 23.0565C13.3132 22.6877 13.0304 22.3724 12.6616 22.3524C12.2928 22.3324 11.9775 22.6151 11.9575 22.984C11.9375 23.3528 12.2202 23.668 12.589 23.6881Z" fill="#DE002B"/>
<path d="M10.3887 20.7827L10.4407 20.4706L10.0723 20.4092V20.7827H10.3887ZM14.9887 21.5494H15.3051V21.2813L15.0407 21.2373L14.9887 21.5494ZM10.3887 24.6161H10.0723V24.9072L10.3624 24.9314L10.3887 24.6161ZM14.9887 24.9994L14.9624 25.3147L15.3051 25.3433V24.9994H14.9887ZM13.2932 23.0565L12.9772 23.0394L12.9772 23.0394L13.2932 23.0565ZM12.589 23.6881L12.6062 23.3721L12.6062 23.3721L12.589 23.6881ZM12.6616 22.3524L12.6444 22.6683L12.6444 22.6683L12.6616 22.3524ZM11.9575 22.984L11.6416 22.9668L11.6416 22.9668L11.9575 22.984ZM10.3367 21.0948L14.9367 21.8615L15.0407 21.2373L10.4407 20.4706L10.3367 21.0948ZM10.7051 24.6161V20.7827H10.0723V24.6161H10.7051ZM15.015 24.6841L10.4149 24.3008L10.3624 24.9314L14.9624 25.3147L15.015 24.6841ZM14.6723 21.5494V24.9994H15.3051V21.5494H14.6723ZM12.9772 23.0394C12.9667 23.2337 12.8006 23.3827 12.6062 23.3721L12.5719 24.004C13.1152 24.0335 13.5796 23.617 13.6091 23.0737L12.9772 23.0394ZM12.6444 22.6683C12.8388 22.6789 12.9878 22.845 12.9772 23.0394L13.6091 23.0737C13.6386 22.5304 13.2221 22.066 12.6788 22.0365L12.6444 22.6683ZM12.2734 23.0011C12.284 22.8068 12.4501 22.6578 12.6444 22.6683L12.6788 22.0365C12.1355 22.0069 11.6711 22.4235 11.6416 22.9668L12.2734 23.0011ZM12.6062 23.3721C12.4119 23.3616 12.2629 23.1955 12.2734 23.0011L11.6416 22.9668C11.612 23.5101 12.0286 23.9745 12.5719 24.004L12.6062 23.3721Z" fill="#DE002B" mask="url(#path-4-inside-2_142_31)"/>
<path d="M7.62877 5.53004C7.62202 5.65419 7.5159 5.74937 7.39175 5.74263C7.2676 5.73588 7.17242 5.62977 7.17916 5.50561C7.18591 5.38146 7.29202 5.28628 7.41618 5.29302C7.54033 5.29977 7.63551 5.40589 7.62877 5.53004Z" fill="#DE002B" stroke="#DE002B" stroke-width="0.316404"/>
<path d="M7.62877 6.8235C7.62202 6.94765 7.5159 7.04283 7.39175 7.03608C7.2676 7.02934 7.17242 6.92322 7.17916 6.79907C7.18591 6.67491 7.29202 6.57974 7.41618 6.58648C7.54033 6.59323 7.63551 6.69934 7.62877 6.8235Z" fill="#DE002B" stroke="#DE002B" stroke-width="0.316404"/>
<line x1="15.7627" y1="9.74593" x2="11.081" y2="9.74593" stroke="#DE002B" stroke-width="0.778971"/>
<path d="M14.9883 4.29932L10.3065 4.29932" stroke="#DE002B" stroke-width="0.766669"/>
<path d="M7.40234 8.01904L7.40234 21.3954" stroke="#DE002B" stroke-width="0.778971" stroke-linecap="round"/>
<path d="M7.40234 21.3958L10.3165 24.7399M10.3165 24.7399V20.0701L11.3317 21.2883M10.3165 24.7399H14.7832V21.2883M11.3317 21.2883H14.7832M11.3317 21.2883L11.3317 9.30924L10.1135 8.35378V4.10833L7.40234 2H11.7377L14.7832 4.03034V8.35378L16.0014 9.30924V14.9942V15.7108V16.3796V17.7173V19.3893V21.2883H14.7832" stroke="#DE002B" stroke-width="0.778971" stroke-linecap="round" stroke-linejoin="round"/>
</svg>
