<svg width="26" height="26" viewBox="0 0 26 26" fill="none" xmlns="http://www.w3.org/2000/svg">
<rect width="26" height="26" fill="white"/>
<path d="M3.82565 12.4391C3.81668 12.6041 3.67562 12.7307 3.51058 12.7217C3.34555 12.7127 3.21903 12.5717 3.228 12.4066C3.23696 12.2416 3.37802 12.1151 3.54306 12.124C3.70809 12.133 3.83461 12.2741 3.82565 12.4391Z" fill="#DE002B" stroke="#DE002B" stroke-width="0.401469"/>
<path d="M3.82565 10.82C3.81668 10.985 3.67562 11.1115 3.51058 11.1025C3.34555 11.0936 3.21903 10.9525 3.228 10.7875C3.23696 10.6225 3.37802 10.4959 3.54306 10.5049C3.70809 10.5139 3.83461 10.6549 3.82565 10.82Z" fill="#DE002B" stroke="#DE002B" stroke-width="0.401469"/>
<path d="M22.0074 7.5L16.5247 4L3.50742 5.5M7.50742 22.5L3.46191 18.6149V13.9637" stroke="#DE002B" stroke-linecap="round" stroke-linejoin="round"/>
<path d="M3.50781 5.5V7.5" stroke="#DE002B" stroke-linecap="round"/>
<path d="M7.58203 22.3411V9.3271C7.58203 9.13098 7.7301 8.96651 7.92513 8.94598L21.7211 7.49378C21.9473 7.46996 22.1444 7.64738 22.1444 7.8749V20.5258C22.1444 20.7181 22.0018 20.8807 21.8112 20.9058L8.01524 22.721C7.78572 22.7512 7.58203 22.5726 7.58203 22.3411Z" stroke="#DE002B" stroke-width="1.14966" stroke-linecap="round"/>
<path d="M3.50781 5.5L7.77363 9.17347" stroke="#DE002B" stroke-linecap="round"/>
<path fill-rule="evenodd" clip-rule="evenodd" d="M7.19824 8.71671V22.3947L21.7606 20.7439V7.06592L7.19824 8.71671ZM19.4601 19.3683C19.8827 19.3913 20.244 19.0672 20.267 18.6446C20.2899 18.2219 19.9659 17.8606 19.5432 17.8377C19.1206 17.8147 18.7593 18.1387 18.7363 18.5614C18.7134 18.9841 19.0374 19.3453 19.4601 19.3683ZM12.9814 21.0013L10.7865 18.8064C10.6518 18.6717 10.6518 18.4533 10.7865 18.3187L12.9814 16.1237C13.1161 15.989 13.3345 15.989 13.4691 16.1237C13.6038 16.2584 13.6038 16.4768 13.4691 16.6115L11.863 18.2176H18.6947V18.9074L11.863 18.9074L13.4691 20.5136C13.6038 20.6483 13.6038 20.8666 13.4691 21.0013C13.3345 21.136 13.1161 21.136 12.9814 21.0013ZM20.7141 12.1148C20.8343 12.2575 20.8049 12.4701 20.6565 12.5831C20.508 12.6961 20.2968 12.6667 20.1758 12.5247C19.2972 11.4936 18.0995 10.7798 16.7676 10.5002C15.3253 10.1974 13.8222 10.4241 12.5333 11.1388C11.2444 11.8534 10.2559 13.0083 9.74869 14.392C9.28035 15.6698 9.25132 17.0638 9.66043 18.3551C9.71678 18.533 9.62984 18.7277 9.45536 18.7938C9.28088 18.8598 9.08503 18.7721 9.02771 18.5946C8.5617 17.1512 8.59014 15.5897 9.11435 14.1595C9.67741 12.6234 10.7748 11.3413 12.2056 10.5479C13.6365 9.75453 15.3052 9.50289 16.9064 9.83904C18.3972 10.152 19.7366 10.955 20.7141 12.1148Z" fill="#DE002B"/>
</svg>
