<svg width="26" height="26" viewBox="0 0 26 26" fill="none" xmlns="http://www.w3.org/2000/svg">
<rect width="26" height="26" fill="white"/>
<path d="M3 4L3 22.5277" stroke="#DE002B" stroke-linecap="round"/>
<path d="M21.7393 22.5278L2.99971 22.5278" stroke="#DE002B" stroke-linecap="round"/>
<path d="M21.6885 4.00391L3.00043 4.00391" stroke="#DE002B" stroke-linecap="round"/>
<path d="M21.7451 13.7334V22.5278" stroke="#DE002B" stroke-linecap="round"/>
<path d="M17.5271 12.6596C17.5271 15.6092 15.136 18.0003 12.1865 18.0003C9.23692 18.0003 6.84584 15.6092 6.84584 12.6596C6.84584 9.71007 9.23692 7.31898 12.1865 7.31898C15.136 7.31898 17.5271 9.71007 17.5271 12.6596Z" fill="#DE002B" stroke="#DE002B" stroke-width="1.82839"/>
<path d="M15.543 12.6061C15.543 12.8703 15.3288 13.0845 15.0646 13.0845C14.8004 13.0845 14.5862 12.8703 14.5862 12.6061C14.5862 12.3419 14.8004 12.1277 15.0646 12.1277C15.3288 12.1277 15.543 12.3419 15.543 12.6061Z" fill="white" stroke="white" stroke-width="1.18598"/>
<circle cx="9.20131" cy="12.6061" r="0.592992" fill="white" stroke="white" stroke-width="0.956877"/>
<path d="M22.2207 12C22.2207 12.2761 21.9968 12.5 21.7207 12.5C21.4446 12.5 21.2207 12.2761 21.2207 12C21.2207 11.7239 21.4446 11.5 21.7207 11.5C21.9968 11.5 22.2207 11.7239 22.2207 12Z" fill="#DE002B"/>
<path d="M22.2207 10C22.2207 10.2761 21.9968 10.5 21.7207 10.5C21.4446 10.5 21.2207 10.2761 21.2207 10C21.2207 9.72386 21.4446 9.5 21.7207 9.5C21.9968 9.5 22.2207 9.72386 22.2207 10Z" fill="#DE002B"/>
</svg>
