<svg width="26" height="26" viewBox="0 0 26 26" fill="none" xmlns="http://www.w3.org/2000/svg">
<rect width="26" height="26" fill="white"/>
<path d="M8.35411 10.6486C8.35152 10.6962 8.31079 10.7328 8.26314 10.7302C8.21549 10.7276 8.17896 10.6869 8.18155 10.6392C8.18414 10.5916 8.22486 10.555 8.27252 10.5576C8.32017 10.5602 8.3567 10.6009 8.35411 10.6486Z" fill="#DE002B" stroke="#DE002B" stroke-width="0.710919"/>
<path d="M8.73699 9.37505C8.72933 9.51605 8.60882 9.62414 8.46782 9.61648C8.32683 9.60881 8.21874 9.4883 8.2264 9.34731C8.23406 9.20631 8.35457 9.09822 8.49556 9.10588C8.63656 9.11355 8.74465 9.23406 8.73699 9.37505Z" fill="#DE002B" stroke="#DE002B" stroke-width="0.372386"/>
<path d="M11.4032 5.10886C10.8256 5.21784 9.52128 5.96223 8.92429 8.06799" stroke="#DE002B" stroke-width="0.883731" stroke-linecap="round" stroke-linejoin="round"/>
<path d="M9.52122 20.0963C9.46258 19.5726 9.87245 19.1143 10.3995 19.1143H13.2472H15.3127H15.9089C16.4968 19.1143 16.9208 19.6776 16.7581 20.2426L16.7149 20.3926C16.6775 20.5222 16.611 20.6416 16.5205 20.7415L16.0612 21.2483C15.9282 21.395 15.8484 21.5822 15.8345 21.7798L15.792 22.3844C15.7796 22.5608 15.7145 22.7294 15.6053 22.8685L15.1108 23.4977C14.9433 23.7109 14.6871 23.8354 14.416 23.8354H11.7764C11.4953 23.8354 11.2309 23.7016 11.0644 23.475L10.6112 22.8585C10.5135 22.7256 10.4549 22.5679 10.4422 22.4034L10.3934 21.7735C10.3784 21.5798 10.2999 21.3964 10.1702 21.2518L9.76528 20.8002C9.64246 20.6632 9.56545 20.4913 9.54498 20.3085L9.52122 20.0963Z" fill="#DE002B"/>
<path d="M19.7329 10.3954C21.0585 5.53492 17.2186 2 13.3075 2C9.39644 2 5.59325 5.09306 6.0351 10.3472C6.0351 12.1407 7.0635 13.4971 7.91197 14.8449C9.13746 16.7916 8.23524 17.7871 10.4538 17.9072C10.5655 17.9132 15.6431 17.9072 15.7561 17.9072C18.1134 17.9072 17.0787 16.8896 18.3659 14.8449" stroke="#DE002B" stroke-width="1.06638" stroke-linecap="round"/>
</svg>
