<svg width="26" height="26" viewBox="0 0 26 26" fill="none" xmlns="http://www.w3.org/2000/svg">
<rect width="26" height="26" fill="white"/>
<circle cx="16.6388" cy="18.7527" r="0.601624" transform="rotate(3.11008 16.6388 18.7527)" fill="#DE002B" stroke="#DE002B" stroke-width="0.426959"/>
<circle cx="9.30288" cy="23.2356" r="0.601624" transform="rotate(3.11008 9.30288 23.2356)" fill="#DE002B" stroke="#DE002B" stroke-width="0.426959"/>
<circle cx="16.6388" cy="23.2356" r="0.601624" transform="rotate(3.11008 16.6388 23.2356)" fill="#DE002B" stroke="#DE002B" stroke-width="0.426959"/>
<path d="M19.8568 17.8945V21.1549C19.8568 22.0553 19.1269 22.7851 18.2266 22.7851H7.63021C6.72987 22.7851 6 22.0553 6 21.1549V7.29818C6 6.39784 6.72987 5.66797 7.63021 5.66797H18.2266C19.1269 5.66797 19.8568 6.39784 19.8568 7.29818V9.56518" stroke="#DE002B" stroke-width="0.916991" stroke-linecap="round"/>
<path d="M10.4831 2.4585H15.3737C15.5706 2.4585 15.7303 2.61815 15.7303 2.8151V5.26041C15.7303 5.45736 15.5706 5.61702 15.3737 5.61702H10.4831C10.2861 5.61702 10.1265 5.45736 10.1265 5.26041V2.8151C10.1265 2.61815 10.2861 2.4585 10.4831 2.4585Z" stroke="#DE002B" stroke-width="0.916991"/>
<mask id="path-6-inside-1_142_40" fill="white">
<path fill-rule="evenodd" clip-rule="evenodd" d="M7.51983 7.50195C7.18689 7.50195 6.91699 7.77185 6.91699 8.10479V14.1332C6.91699 14.4661 7.18689 14.736 7.51983 14.736H17.1653C17.4982 14.736 17.7681 14.4661 17.7681 14.1332V8.10479C17.7681 7.77185 17.4982 7.50195 17.1653 7.50195H7.51983ZM12.8973 9.41843C12.9365 9.31884 12.892 9.20587 12.7953 9.15981C12.6987 9.11375 12.5829 9.15029 12.5303 9.24347L11.4962 11.0727C11.4587 11.139 11.4613 11.2206 11.5029 11.2843C11.5445 11.3481 11.6182 11.3833 11.6939 11.3757L12.2385 11.321L11.6397 12.58C11.5929 12.6784 11.6317 12.7962 11.7279 12.8474C11.8241 12.8986 11.9435 12.8651 11.999 12.7714L13.1054 10.9041C13.1446 10.838 13.1432 10.7554 13.1019 10.6906C13.0605 10.6258 12.9862 10.5898 12.9097 10.5975L12.4132 10.6474L12.8973 9.41843Z"/>
</mask>
<path fill-rule="evenodd" clip-rule="evenodd" d="M7.51983 7.50195C7.18689 7.50195 6.91699 7.77185 6.91699 8.10479V14.1332C6.91699 14.4661 7.18689 14.736 7.51983 14.736H17.1653C17.4982 14.736 17.7681 14.4661 17.7681 14.1332V8.10479C17.7681 7.77185 17.4982 7.50195 17.1653 7.50195H7.51983ZM12.8973 9.41843C12.9365 9.31884 12.892 9.20587 12.7953 9.15981C12.6987 9.11375 12.5829 9.15029 12.5303 9.24347L11.4962 11.0727C11.4587 11.139 11.4613 11.2206 11.5029 11.2843C11.5445 11.3481 11.6182 11.3833 11.6939 11.3757L12.2385 11.321L11.6397 12.58C11.5929 12.6784 11.6317 12.7962 11.7279 12.8474C11.8241 12.8986 11.9435 12.8651 11.999 12.7714L13.1054 10.9041C13.1446 10.838 13.1432 10.7554 13.1019 10.6906C13.0605 10.6258 12.9862 10.5898 12.9097 10.5975L12.4132 10.6474L12.8973 9.41843Z" fill="#DE002B"/>
<path d="M12.7953 9.15981L12.62 9.52769L12.62 9.52769L12.7953 9.15981ZM12.8973 9.41843L12.5181 9.26907L12.5181 9.26907L12.8973 9.41843ZM12.5303 9.24347L12.885 9.44404L12.885 9.44404L12.5303 9.24347ZM11.4962 11.0727L11.8509 11.2733L11.8509 11.2733L11.4962 11.0727ZM11.5029 11.2843L11.1616 11.5071L11.1616 11.5071L11.5029 11.2843ZM11.6939 11.3757L11.6532 10.9702L11.6532 10.9702L11.6939 11.3757ZM12.2385 11.321L12.6066 11.4961L12.9171 10.8432L12.1978 10.9155L12.2385 11.321ZM11.6397 12.58L12.0077 12.7551L12.0077 12.7551L11.6397 12.58ZM11.7279 12.8474L11.9195 12.4877L11.9195 12.4877L11.7279 12.8474ZM11.999 12.7714L12.3496 12.9792L12.3496 12.9792L11.999 12.7714ZM13.1054 10.9041L13.456 11.1119L13.456 11.1119L13.1054 10.9041ZM13.1019 10.6906L12.7583 10.9099L12.7583 10.9099L13.1019 10.6906ZM12.9097 10.5975L12.9505 11.003L12.9505 11.003L12.9097 10.5975ZM12.4132 10.6474L12.034 10.498L11.7892 11.1197L12.4539 11.0529L12.4132 10.6474ZM7.32454 8.10479C7.32454 7.99694 7.41198 7.9095 7.51983 7.9095V7.0944C6.96181 7.0944 6.50944 7.54677 6.50944 8.10479H7.32454ZM7.32454 14.1332V8.10479H6.50944V14.1332H7.32454ZM7.51983 14.3285C7.41198 14.3285 7.32454 14.2411 7.32454 14.1332H6.50944C6.50944 14.6912 6.96181 15.1436 7.51983 15.1436V14.3285ZM17.1653 14.3285H7.51983V15.1436H17.1653V14.3285ZM17.3606 14.1332C17.3606 14.2411 17.2731 14.3285 17.1653 14.3285V15.1436C17.7233 15.1436 18.1757 14.6912 18.1757 14.1332H17.3606ZM17.3606 8.10479V14.1332H18.1757V8.10479H17.3606ZM17.1653 7.9095C17.2731 7.9095 17.3606 7.99694 17.3606 8.10479H18.1757C18.1757 7.54677 17.7233 7.0944 17.1653 7.0944V7.9095ZM7.51983 7.9095H17.1653V7.0944H7.51983V7.9095ZM12.62 9.52769C12.5233 9.48163 12.4788 9.36867 12.5181 9.26907L13.2765 9.56779C13.3941 9.26901 13.2606 8.93012 12.9707 8.79193L12.62 9.52769ZM12.885 9.44404C12.8324 9.53722 12.7166 9.57376 12.62 9.52769L12.9707 8.79193C12.6809 8.65374 12.3335 8.76336 12.1755 9.0429L12.885 9.44404ZM11.8509 11.2733L12.885 9.44404L12.1755 9.0429L11.1414 10.8721L11.8509 11.2733ZM11.8442 11.0616C11.8858 11.1254 11.8884 11.207 11.8509 11.2733L11.1414 10.8721C11.029 11.0709 11.0368 11.3158 11.1616 11.5071L11.8442 11.0616ZM11.6532 10.9702C11.7289 10.9626 11.8026 10.9978 11.8442 11.0616L11.1616 11.5071C11.2864 11.6983 11.5074 11.8041 11.7347 11.7812L11.6532 10.9702ZM12.1978 10.9155L11.6532 10.9702L11.7347 11.7812L12.2793 11.7265L12.1978 10.9155ZM12.0077 12.7551L12.6066 11.4961L11.8705 11.1459L11.2716 12.405L12.0077 12.7551ZM11.9195 12.4877C12.0157 12.5389 12.0545 12.6567 12.0077 12.7551L11.2716 12.4049C11.1313 12.7001 11.2478 13.0534 11.5363 13.2071L11.9195 12.4877ZM11.6484 12.5637C11.7039 12.4699 11.8234 12.4365 11.9195 12.4877L11.5363 13.2071C11.8248 13.3608 12.183 13.2603 12.3496 12.9792L11.6484 12.5637ZM12.7548 10.6964L11.6484 12.5637L12.3496 12.9792L13.456 11.1119L12.7548 10.6964ZM12.7583 10.9099C12.717 10.8451 12.7156 10.7625 12.7548 10.6964L13.456 11.1119C13.5736 10.9135 13.5695 10.6658 13.4454 10.4714L12.7583 10.9099ZM12.9505 11.003C12.874 11.0107 12.7997 10.9747 12.7583 10.9099L13.4454 10.4714C13.3214 10.277 13.0985 10.1689 12.869 10.192L12.9505 11.003ZM12.4539 11.0529L12.9505 11.003L12.869 10.192L12.3725 10.2419L12.4539 11.0529ZM12.5181 9.26907L12.034 10.498L12.7924 10.7967L13.2765 9.56779L12.5181 9.26907Z" fill="#DE002B" mask="url(#path-6-inside-1_142_40)"/>
<path d="M20.294 16.593C20.294 16.8462 20.0887 17.0515 19.8355 17.0515C19.5822 17.0515 19.377 16.8462 19.377 16.593C19.377 16.3398 19.5822 16.1345 19.8355 16.1345C20.0887 16.1345 20.294 16.3398 20.294 16.593Z" fill="#DE002B"/>
<path d="M20.2939 15.2964C20.2939 15.5496 20.0887 15.7549 19.8354 15.7549C19.5822 15.7549 19.377 15.5496 19.377 15.2964C19.377 15.0432 19.5822 14.8379 19.8354 14.8379C20.0887 14.8379 20.2939 15.0432 20.2939 15.2964Z" fill="#DE002B"/>
</svg>
