<svg width="26" height="26" viewBox="0 0 26 26" fill="none" xmlns="http://www.w3.org/2000/svg">
<rect width="26" height="26" fill="white"/>
<path d="M22.217 7.38831C22.2107 7.505 22.111 7.59446 21.9943 7.58812C21.8776 7.58178 21.7881 7.48204 21.7945 7.36535C21.8008 7.24866 21.9005 7.1592 22.0172 7.16554C22.1339 7.17188 22.2234 7.27162 22.217 7.38831Z" fill="#DE002B" stroke="#DE002B" stroke-width="0.368729"/>
<path d="M21.4006 6.5885C21.3943 6.7052 21.2945 6.79465 21.1778 6.78831C21.0612 6.78197 20.9717 6.68224 20.978 6.56554C20.9844 6.44885 21.0841 6.35939 21.2008 6.36574C21.3175 6.37208 21.407 6.47181 21.4006 6.5885Z" fill="#DE002B" stroke="#DE002B" stroke-width="0.368729"/>
<path d="M15.7461 11.274L13.5629 9.09081C13.4426 8.97054 13.4426 8.77554 13.5629 8.65527L14.8748 7.34336L17.4935 9.9621L16.1816 11.274C16.0614 11.3943 15.8664 11.3943 15.7461 11.274Z" stroke="#DE002B" stroke-width="0.79193"/>
<path d="M20.7421 8.26589L18.699 9.38341L15.4209 6.10527L16.5384 4.06225L20.7421 8.26589Z" fill="#DE002B" stroke="#DE002B" stroke-width="0.703938"/>
<path fill-rule="evenodd" clip-rule="evenodd" d="M6.24289 21.0383C6.3516 21.0453 6.4574 21.0015 6.52942 20.9198L15.2249 11.0522C15.3477 10.9128 15.341 10.7019 15.2097 10.5706L14.46 9.82089C14.3286 9.68952 14.1178 9.68287 13.9784 9.8057L4.11079 18.5011C4.02906 18.5732 3.98529 18.679 3.99224 18.7877L4.10774 20.594C4.11903 20.7707 4.25983 20.9115 4.43653 20.9228L6.24289 21.0383ZM5.8947 20.2947C5.93204 20.2947 5.96785 20.2798 5.99425 20.2534L7.67898 18.5687C7.73397 18.5137 7.73397 18.4246 7.67899 18.3696L6.66107 17.3517C6.60609 17.2967 6.51695 17.2967 6.46197 17.3517L4.77724 19.0364C4.75084 19.0628 4.736 19.0986 4.736 19.136L4.736 20.1539C4.736 20.2317 4.79904 20.2947 4.87679 20.2947L5.8947 20.2947Z" fill="#DE002B"/>
<path d="M19.561 10.3913L23.1269 9.09466C23.2706 9.0424 23.3129 8.85945 23.2066 8.74947L22.7288 8.25479M17.4492 3L19.561 5.11181" stroke="#DE002B" stroke-width="0.79193" stroke-linecap="round"/>
</svg>
