<svg width="26" height="26" viewBox="0 0 26 26" fill="none" xmlns="http://www.w3.org/2000/svg">
<rect width="26" height="26" fill="white"/>
<path d="M10.5321 20.9627C10.5251 21.0906 10.4158 21.1886 10.2879 21.1817C10.16 21.1747 10.0619 21.0654 10.0689 20.9375C10.0758 20.8096 10.1851 20.7115 10.313 20.7185C10.441 20.7254 10.539 20.8348 10.5321 20.9627Z" fill="#DE002B" stroke="#DE002B" stroke-width="0.404174"/>
<path d="M12.2685 20.9627C12.2615 21.0906 12.1522 21.1887 12.0243 21.1817C11.8964 21.1748 11.7983 21.0654 11.8053 20.9375C11.8122 20.8096 11.9215 20.7116 12.0495 20.7185C12.1774 20.7255 12.2754 20.8348 12.2685 20.9627Z" fill="#DE002B" stroke="#DE002B" stroke-width="0.404174"/>
<path d="M21.5135 20.9753H15.187M3.7666 13.2593H20.4196C21.8782 14.2238 21.8782 16.1528 20.4196 17.1173H4.86057C3.40197 18.0818 3.40192 20.0108 4.86057 20.9753H8.78204" stroke="#DE002B" stroke-width="0.868056" stroke-linecap="round" stroke-linejoin="round"/>
<path d="M5.69623 10.9443C5.69623 11.1574 5.86896 11.3301 6.08203 11.3301C6.2951 11.3301 6.46783 11.1574 6.46783 10.9443H5.69623ZM6.35484 3.72708C6.20417 3.57642 5.95989 3.57642 5.80923 3.72708L3.35399 6.18232C3.20333 6.33298 3.20333 6.57726 3.35399 6.72792C3.50466 6.87859 3.74894 6.87859 3.8996 6.72792L6.08203 4.54549L8.26446 6.72792C8.41513 6.87859 8.6594 6.87859 8.81007 6.72792C8.96073 6.57726 8.96073 6.33298 8.81007 6.18232L6.35484 3.72708ZM6.46783 10.9443L6.46783 3.99989H5.69623L5.69623 10.9443H6.46783Z" fill="#DE002B"/>
<path d="M19.5849 10.9443C19.5849 11.1574 19.7576 11.3301 19.9707 11.3301C20.1838 11.3301 20.3565 11.1574 20.3565 10.9443H19.5849ZM20.2435 3.72708C20.0928 3.57642 19.8486 3.57642 19.6979 3.72708L17.2427 6.18232C17.092 6.33298 17.092 6.57726 17.2427 6.72792C17.3933 6.87859 17.6376 6.87859 17.7883 6.72792L19.9707 4.54549L22.1531 6.72792C22.3038 6.87859 22.5481 6.87859 22.6987 6.72792C22.8494 6.57726 22.8494 6.33298 22.6987 6.18232L20.2435 3.72708ZM20.3565 10.9443V3.99989H19.5849V10.9443H20.3565Z" fill="#DE002B"/>
<path d="M12.6406 10.9443C12.6406 11.1574 12.8133 11.3301 13.0264 11.3301C13.2394 11.3301 13.4122 11.1574 13.4122 10.9443H12.6406ZM13.2992 3.72708C13.1485 3.57642 12.9042 3.57642 12.7536 3.72708L10.2983 6.18232C10.1477 6.33298 10.1477 6.57726 10.2983 6.72792C10.449 6.87859 10.6933 6.87859 10.8439 6.72792L13.0264 4.54549L15.2088 6.72792C15.3595 6.87859 15.6037 6.87859 15.7544 6.72792C15.9051 6.57726 15.9051 6.33298 15.7544 6.18232L13.2992 3.72708ZM13.4122 10.9443L13.4122 3.99989H12.6406L12.6406 10.9443H13.4122Z" fill="#DE002B"/>
<path d="M3 14.0842C3 13.1718 3.73966 12.4321 4.65207 12.4321H19.5071C20.2608 12.4321 20.9207 12.9379 21.1166 13.6657L21.1639 13.8416C21.2067 14.0007 21.2895 14.1462 21.4044 14.2643V14.2643C22.0002 14.8767 21.5663 15.9043 20.7118 15.9043L4.82015 15.9044C3.81491 15.9044 3 15.0894 3 14.0842V14.0842V14.0842Z" fill="#DE002B"/>
</svg>
