<svg width="26" height="26" viewBox="0 0 26 26" fill="none" xmlns="http://www.w3.org/2000/svg">
<rect width="26" height="26" fill="white"/>
<path d="M2 12.6773L13.0237 6.18115L16.0867 7.92391M24.1858 12.9731L21.9198 11.4028" stroke="#DE002B" stroke-width="0.765029" stroke-linecap="round" stroke-linejoin="round"/>
<path d="M14.3432 19.5075C14.3432 20.2692 13.7257 20.8867 12.9641 20.8867C12.2024 20.8867 11.5849 20.2692 11.5849 19.5075C11.5849 18.7458 12.2024 18.1283 12.9641 18.1283C13.7257 18.1283 14.3432 18.7458 14.3432 19.5075Z" fill="#DE002B" stroke="#DE002B" stroke-width="0.785016"/>
<path d="M16.8604 8.46677C16.8604 8.44145 16.8809 8.42092 16.9062 8.42092C16.9315 8.42092 16.9521 8.44145 16.9521 8.46677C16.9521 8.4921 16.9315 8.51262 16.9062 8.51262C16.8809 8.51262 16.8604 8.4921 16.8604 8.46677Z" fill="#DE002B" stroke="#DE002B" stroke-width="0.785016"/>
<path d="M17.9004 9.15964C17.9004 9.13432 17.9209 9.11379 17.9463 9.11379C17.9716 9.11379 17.9921 9.13432 17.9921 9.15964C17.9921 9.18497 17.9716 9.2055 17.9463 9.2055C17.9209 9.2055 17.9004 9.18497 17.9004 9.15964Z" fill="#DE002B" stroke="#DE002B" stroke-width="0.785016"/>
<path d="M8.24023 13.5304C9.6182 11.8018 13.4371 9.38178 17.6891 13.5304" stroke="#DE002B" stroke-width="0.918035" stroke-linecap="round"/>
<path d="M9.41992 15.2483C10.4534 13.9518 13.3176 12.1368 16.5066 15.2483" stroke="#DE002B" stroke-width="0.918035" stroke-linecap="round"/>
<path d="M10.6025 17.1097C11.2915 16.2454 13.201 15.0354 15.327 17.1097" stroke="#DE002B" stroke-width="0.918035" stroke-linecap="round"/>
<path d="M6.13477 6.73338V9.72445C6.13477 9.93484 6.36327 10.0657 6.54471 9.95917L8.89374 8.5803C9.0138 8.50983 9.08755 8.38102 9.08755 8.2418V5.63808C9.08755 5.34558 8.7791 5.15585 8.51803 5.28776L6.35027 6.38305C6.2181 6.44983 6.13477 6.5853 6.13477 6.73338Z" fill="#DE002B" stroke="#DE002B" stroke-width="0.765029" stroke-linecap="round" stroke-linejoin="round"/>
</svg>
