<svg width="26" height="26" viewBox="0 0 26 26" fill="none" xmlns="http://www.w3.org/2000/svg">
<rect width="26" height="26" fill="white"/>
<path d="M13.7869 17.5649C13.7961 17.6777 13.7122 17.7767 13.5994 17.786C13.4865 17.7953 13.3875 17.7114 13.3782 17.5985C13.369 17.4857 13.4529 17.3867 13.5657 17.3774C13.6786 17.3681 13.7776 17.4521 13.7869 17.5649Z" fill="#DE002B" stroke="#DE002B" stroke-width="0.450998"/>
<path d="M12.7429 18.3847C12.7522 18.4975 12.6683 18.5966 12.5554 18.6058C12.4426 18.6151 12.3436 18.5312 12.3343 18.4184C12.325 18.3055 12.4089 18.2065 12.5218 18.1972C12.6346 18.1879 12.7336 18.2719 12.7429 18.3847Z" fill="#DE002B" stroke="#DE002B" stroke-width="0.450998"/>
<path d="M11.5343 19.2953L8.60937 21.8916C8.1825 22.2705 7.5293 22.2316 7.15039 21.8047L3.68637 17.9022C3.30747 17.4753 3.34635 16.8221 3.77322 16.4432L17.0186 4.68613C17.4455 4.30723 18.0987 4.34611 18.4776 4.77298L21.9422 8.67617C22.3209 9.10278 22.2823 9.75551 21.856 10.1346L18.0054 13.5585C17.5874 13.9302 16.9495 13.9018 16.5661 13.4945L12.2966 8.95811" stroke="#DE002B" stroke-width="0.860997" stroke-linecap="round" stroke-linejoin="round"/>
<path fill-rule="evenodd" clip-rule="evenodd" d="M18.3705 4.63609C18.05 4.28484 17.5054 4.25995 17.1542 4.58049L12.9327 8.43294C12.5815 8.75348 12.5566 9.29807 12.8771 9.64931L16.7296 13.8708C17.0501 14.222 17.5947 14.2469 17.946 13.9264L22.1674 10.0739C22.5186 9.75337 22.5435 9.20878 22.223 8.85754L18.3705 4.63609ZM16.4863 7.39782C16.662 7.23773 16.9343 7.25045 17.0944 7.42623L19.472 10.0368C19.632 10.2126 19.6193 10.4848 19.4435 10.6449C19.2678 10.805 18.9955 10.7923 18.8354 10.6165L16.4579 8.00598C16.2978 7.83019 16.3105 7.55791 16.4863 7.39782ZM6.1543 16.0078C6.33008 15.8477 6.60236 15.8604 6.76245 16.0362L9.13999 18.6467C9.30008 18.8225 9.28736 19.0948 9.11158 19.2549C8.9358 19.415 8.66352 19.4023 8.50343 19.2265L6.12589 16.6159C5.9658 16.4402 5.97852 16.1679 6.1543 16.0078Z" fill="#DE002B"/>
<path d="M16.6703 10.2224L19.2588 7.8208" stroke="white" stroke-width="0.860997" stroke-linecap="round"/>
<rect x="19.9753" y="5.22639" width="2.5924" height="0.929633" rx="0.464817" transform="rotate(49.1988 19.9753 5.22639)" fill="#DE002B" stroke="#DE002B" stroke-width="0.929633"/>
</svg>
