<svg xmlns="http://www.w3.org/2000/svg" viewBox="0 0 64 64" id="categories"><path fill="#222" d="M36.54 38h-9.08a1.5 1.5 0 0 1-1.5-1.5v-9.04a1.5 1.5 0 0 1 1.5-1.5h9.08a1.5 1.5 0 0 1 1.5 1.5v9.08a1.5 1.5 0 0 1-1.5 1.46zM29 35h6v-6h-6zm23.21 3h-9.08a1.5 1.5 0 0 1-1.5-1.5v-9.04a1.5 1.5 0 0 1 1.5-1.5h9.08a1.5 1.5 0 0 1 1.5 1.5v9.08a1.5 1.5 0 0 1-1.5 1.46zm-7.58-3h6.08v-6h-6.08zm-23.76 3h-9.08a1.5 1.5 0 0 1-1.5-1.5v-9.04a1.5 1.5 0 0 1 1.5-1.5h9.08a1.5 1.5 0 0 1 1.5 1.5v9.08a1.5 1.5 0 0 1-1.5 1.46zm-7.58-3h6.08v-6h-6.08zm23.25-12.94h-9.08a1.5 1.5 0 0 1-1.5-1.5v-9.09a1.5 1.5 0 0 1 1.5-1.5h9.08a1.5 1.5 0 0 1 1.5 1.5v9.09a1.5 1.5 0 0 1-1.5 1.5zm-7.58-3H35V13h-6zm23.25 3h-9.08a1.5 1.5 0 0 1-1.5-1.5v-9.09a1.5 1.5 0 0 1 1.5-1.5h9.08a1.5 1.5 0 0 1 1.5 1.5v9.09a1.5 1.5 0 0 1-1.5 1.5zm-7.58-3h6.08V13h-6.08zm-23.76 3h-9.08a1.5 1.5 0 0 1-1.5-1.5v-9.09a1.5 1.5 0 0 1 1.5-1.5h9.08a1.5 1.5 0 0 1 1.5 1.5v9.09a1.5 1.5 0 0 1-1.5 1.5zm-7.58-3h6.08V13h-6.08zM36.54 54h-9.08a1.5 1.5 0 0 1-1.5-1.5v-9.06a1.5 1.5 0 0 1 1.5-1.5h9.08a1.5 1.5 0 0 1 1.5 1.5v9.09a1.5 1.5 0 0 1-1.5 1.47zM29 51h6v-6.06h-6zm23.21 3h-9.08a1.5 1.5 0 0 1-1.5-1.5v-9.06a1.5 1.5 0 0 1 1.5-1.5h9.08a1.5 1.5 0 0 1 1.5 1.5v9.09a1.5 1.5 0 0 1-1.5 1.47zm-7.58-3h6.08v-6.06h-6.08zm-23.76 3h-9.08a1.5 1.5 0 0 1-1.5-1.5v-9.06a1.5 1.5 0 0 1 1.5-1.5h9.08a1.5 1.5 0 0 1 1.5 1.5v9.09a1.5 1.5 0 0 1-1.5 1.47zm-7.58-3h6.08v-6.06h-6.08z"></path></svg>