<?xml version="1.0" encoding="UTF-8"?>
<!DOCTYPE svg PUBLIC "-//W3C//DTD SVG 1.1//EN" "http://www.w3.org/Graphics/SVG/1.1/DTD/svg11.dtd">
<!-- Creator: CorelDRAW -->
<svg xmlns="http://www.w3.org/2000/svg" xml:space="preserve" width="101.6mm" height="29.6332mm" version="1.1" style="shape-rendering:geometricPrecision; text-rendering:geometricPrecision; image-rendering:optimizeQuality; fill-rule:evenodd; clip-rule:evenodd"
viewBox="0 0 10159.98 2963.32"
 xmlns:xlink="http://www.w3.org/1999/xlink"
 xmlns:xodm="http://www.corel.com/coreldraw/odm/2003">
 <defs>
  <style type="text/css">
   <![CDATA[
    .fil1 {fill:#E31E24}
    .fil0 {fill:#2C3878;fill-rule:nonzero}
   ]]>
  </style>
 </defs>
 <g id="Слой_x0020_1">
  <metadata id="CorelCorpID_0Corel-Layer"/>
  <path class="fil0" d="M4051 1492.42c-13.05,162.51 -87.78,187.42 -232.49,187.42 -52.19,0 -131.66,-9.49 -170.81,-22.53 -13.05,56.93 -24.91,115.05 -37.96,171.99 64.06,15.42 172,27.28 249.1,27.28 265.7,0 400.93,-100.83 400.93,-437.69 0,-338.06 -135.23,-425.84 -400.93,-425.84 -77.1,0 -185.04,13.05 -249.1,29.65 13.05,56.94 24.91,112.69 37.96,168.44 39.15,-13.05 118.62,-22.54 170.81,-22.54 138.78,0 213.51,17.79 230.12,160.13l-323.83 0 0 163.69 326.2 0zm851.67 -311.95l0 659.5 190.97 0 0 -826.76 -578.85 0c-13.05,301.29 -86.59,581.23 -167.25,826.76l202.83 0c79.48,-227.74 122.18,-456.67 141.16,-659.5l211.14 0zm385.5 -167.26l0 826.76 616.81 0 0 -167.24 -425.84 0 0 -180.31 304.85 0 0 -163.69 -304.85 0 0 -148.26 425.84 0 0 -167.26 -616.81 0zm1474.41 826.76c-119.81,-359.4 -204.02,-422.27 -291.8,-455.48 36.77,-34.4 132.85,-157.77 270.45,-371.28l-227.75 0c-105.56,170.81 -225.37,322.64 -291.79,396.19l0 -396.19 -190.98 0 0 826.76 190.98 0 0 -385.5c130.47,14.24 208.76,81.84 314.33,385.5l226.56 0zm455.49 0l0 -659.5 275.19 0 0 -167.26 -743.73 0 0 167.26 276.38 0 0 659.5 192.16 0zm564.61 -415.16l0 -247.91 206.4 0c52.19,0 80.66,36.78 80.66,126.93 0,86.58 -33.22,120.98 -83.04,120.98l-204.02 0zm0 415.16l0 -257.39 271.63 0c154.21,0 225.38,-129.3 225.38,-278.75 0,-169.63 -56.94,-290.62 -226.56,-290.62l-461.42 0 0 826.76 190.97 0zm983.33 -846.92c-265.7,0 -402.1,88.96 -402.1,424.65 0,340.43 136.4,438.88 402.1,438.88 264.52,0 402.11,-98.45 402.11,-438.88 0,-335.69 -137.59,-424.65 -402.11,-424.65zm0 689.16c-167.25,0 -198.08,-33.21 -198.08,-262.14 0,-225.37 30.83,-251.47 198.08,-251.47 167.26,0 198.09,26.1 198.09,251.47 0,228.93 -30.83,262.14 -198.09,262.14z"/>
  <path class="fil0" d="M4051 1492.42c-13.05,162.51 -87.78,187.42 -232.49,187.42 -52.19,0 -131.66,-9.49 -170.81,-22.53 -13.05,56.93 -24.91,115.05 -37.96,171.99 64.06,15.42 172,27.28 249.1,27.28 265.7,0 400.93,-100.83 400.93,-437.69 0,-338.06 -135.23,-425.84 -400.93,-425.84 -77.1,0 -185.04,13.05 -249.1,29.65 13.05,56.94 24.91,112.69 37.96,168.44 39.15,-13.05 118.62,-22.54 170.81,-22.54 138.78,0 213.51,17.79 230.12,160.13l-323.83 0 0 163.69 326.2 0zm851.67 -311.95l0 659.5 190.97 0 0 -826.76 -578.85 0c-13.05,301.29 -86.59,581.23 -167.25,826.76l202.83 0c79.48,-227.74 122.18,-456.67 141.16,-659.5l211.14 0zm385.5 -167.26l0 826.76 616.81 0 0 -167.24 -425.84 0 0 -180.31 304.85 0 0 -163.69 -304.85 0 0 -148.26 425.84 0 0 -167.26 -616.81 0zm1474.41 826.76c-119.81,-359.4 -204.02,-422.27 -291.8,-455.48 36.77,-34.4 132.85,-157.77 270.45,-371.28l-227.75 0c-105.56,170.81 -225.37,322.64 -291.79,396.19l0 -396.19 -190.98 0 0 826.76 190.98 0 0 -385.5c130.47,14.24 208.76,81.84 314.33,385.5l226.56 0zm455.49 0l0 -659.5 275.19 0 0 -167.26 -743.73 0 0 167.26 276.38 0 0 659.5 192.16 0zm564.61 -415.16l0 -247.91 206.4 0c52.19,0 80.66,36.78 80.66,126.93 0,86.58 -33.22,120.98 -83.04,120.98l-204.02 0zm0 415.16l0 -257.39 271.63 0c154.21,0 225.38,-129.3 225.38,-278.75 0,-169.63 -56.94,-290.62 -226.56,-290.62l-461.42 0 0 826.76 190.97 0zm983.33 -846.92c-265.7,0 -402.1,88.96 -402.1,424.65 0,340.43 136.4,438.88 402.1,438.88 264.52,0 402.11,-98.45 402.11,-438.88 0,-335.69 -137.59,-424.65 -402.11,-424.65zm0 689.16c-167.25,0 -198.08,-33.21 -198.08,-262.14 0,-225.37 30.83,-251.47 198.08,-251.47 167.26,0 198.09,26.1 198.09,251.47 0,228.93 -30.83,262.14 -198.09,262.14z"/>
  <path class="fil1" d="M3143.53 689.57c124.33,20.59 205.32,134.01 215.66,255.9 15.13,178.28 22.45,357.27 22.45,536.19 0,164.94 -6.23,329.92 -19.04,494.37 -8.33,106.86 -63.84,223.7 -160.15,278.1l-16.45 9.29 -18.36 4.5c-318.05,78.1 -653.78,111.21 -980.89,111.21 -326.09,0 -660.64,-32.91 -977.76,-110.43 -115.91,-28.35 -185.77,-144.4 -195.24,-257.38 -14.75,-176.12 -21.89,-352.93 -21.89,-529.66 0,-187.78 8.06,-375.67 24.75,-562.71 10.06,-112.66 88.74,-210.59 201.8,-226.62 314.32,-75.88 645.47,-108.14 968.34,-108.14 319.11,0 645.9,31.52 956.78,105.38zm-1405.16 865.82c-64.43,-162.3 -149.91,-361.76 -221.77,-505.47l-267.6 0 0 863.52 193.27 0 0 -583.53c61.94,138.76 147.43,367.96 201.94,511.67l158.58 0c56.99,-146.19 147.43,-366.72 213.1,-511.67l0 583.53 193.27 0 0 -863.52 -255.22 0c-68.14,142.47 -153.63,341.94 -215.57,505.47zm1438.39 358.05c-125.14,-375.39 -213.1,-441.05 -304.78,-475.74 38.4,-35.93 138.76,-164.78 282.47,-387.78l-237.87 0c-110.26,178.4 -235.4,336.98 -304.77,413.79l0 -413.79 -199.47 0 0 863.52 199.47 0 0 -402.65c136.28,14.87 218.04,85.49 328.31,402.65l236.64 0zm45.53 -956.36c14.38,169.36 21.96,344.82 21.96,524.58 0,165.34 -6.41,327.02 -18.63,483.69 -9.6,123.27 -90.74,169.14 -90.74,169.14 -277.3,68.09 -601.57,107.25 -948.13,107.25 -345.32,0 -668.5,-38.87 -945.13,-106.51 0,0 -81.37,-20.94 -90.96,-135.38 -14.02,-167.4 -21.42,-340.68 -21.42,-518.19 0,-188.95 8.38,-373.13 24.22,-550.5 8.61,-96.56 89.39,-103.37 89.39,-103.37 276.36,-67.45 599.09,-106.21 943.9,-106.21 339.26,0 657.16,37.52 930.55,102.98 0,0 94.78,12.15 104.99,132.52zm50.03 -2.65c7.09,83.59 12.59,170.94 16.39,261.91 3.77,89.87 5.7,178.43 5.7,265.32 0,79.37 -1.66,160.94 -4.86,244.39 -3.22,83.79 -7.89,164.39 -13.92,241.66 -11.8,151.45 -116.56,210.79 -116.86,210.96l-6.37 3.73 -7.89 1.94c-142.8,35.05 -297.67,62.53 -461.29,81.03 -158.62,17.94 -325.12,27.52 -496.47,27.52 -170.74,0 -336.68,-9.52 -494.81,-27.33 -162.8,-18.35 -317.15,-45.64 -459.75,-80.5l-1.67 -0.42c-0.34,-0.08 -117.17,-30.33 -129.87,-182.11 -6.93,-82.63 -12.29,-168.96 -16.01,-258.88 -3.67,-88.83 -5.56,-176.28 -5.56,-261.99 0,-91.71 2.13,-184.73 6.25,-278.69 4.07,-92.29 10.21,-183.92 18.31,-274.58 10.94,-122.77 106.68,-146.71 131.61,-150.89 141.96,-34.55 295.5,-61.6 457.37,-79.82 157.94,-17.77 323.64,-27.26 494.13,-27.26 167.76,0 330.95,9.2 486.7,26.44 158.47,17.53 309.3,43.62 449.44,77 13.11,2.12 136.31,25.99 149.43,180.57z"/>
  <path class="fil1" d="M3143.53 689.57c124.33,20.59 205.32,134.01 215.66,255.9 15.13,178.28 22.45,357.27 22.45,536.19 0,164.94 -6.23,329.92 -19.04,494.37 -8.33,106.86 -63.84,223.7 -160.15,278.1l-16.45 9.29 -18.36 4.5c-318.05,78.1 -653.78,111.21 -980.89,111.21 -326.09,0 -660.64,-32.91 -977.76,-110.43 -115.91,-28.35 -185.77,-144.4 -195.24,-257.38 -14.75,-176.12 -21.89,-352.93 -21.89,-529.66 0,-187.78 8.06,-375.67 24.75,-562.71 10.06,-112.66 88.74,-210.59 201.8,-226.62 314.32,-75.88 645.47,-108.14 968.34,-108.14 319.11,0 645.9,31.52 956.78,105.38zm-1405.16 865.82c-64.43,-162.3 -149.91,-361.76 -221.77,-505.47l-267.6 0 0 863.52 193.27 0 0 -583.53c61.94,138.76 147.43,367.96 201.94,511.67l158.58 0c56.99,-146.19 147.43,-366.72 213.1,-511.67l0 583.53 193.27 0 0 -863.52 -255.22 0c-68.14,142.47 -153.63,341.94 -215.57,505.47zm1438.39 358.05c-125.14,-375.39 -213.1,-441.05 -304.78,-475.74 38.4,-35.93 138.76,-164.78 282.47,-387.78l-237.87 0c-110.26,178.4 -235.4,336.98 -304.77,413.79l0 -413.79 -199.47 0 0 863.52 199.47 0 0 -402.65c136.28,14.87 218.04,85.49 328.31,402.65l236.64 0zm45.53 -956.36c14.38,169.36 21.96,344.82 21.96,524.58 0,165.34 -6.41,327.02 -18.63,483.69 -9.6,123.27 -90.74,169.14 -90.74,169.14 -277.3,68.09 -601.57,107.25 -948.13,107.25 -345.32,0 -668.5,-38.87 -945.13,-106.51 0,0 -81.37,-20.94 -90.96,-135.38 -14.02,-167.4 -21.42,-340.68 -21.42,-518.19 0,-188.95 8.38,-373.13 24.22,-550.5 8.61,-96.56 89.39,-103.37 89.39,-103.37 276.36,-67.45 599.09,-106.21 943.9,-106.21 339.26,0 657.16,37.52 930.55,102.98 0,0 94.78,12.15 104.99,132.52zm50.03 -2.65c7.09,83.59 12.59,170.94 16.39,261.91 3.77,89.87 5.7,178.43 5.7,265.32 0,79.37 -1.66,160.94 -4.86,244.39 -3.22,83.79 -7.89,164.39 -13.92,241.66 -11.8,151.45 -116.56,210.79 -116.86,210.96l-6.37 3.73 -7.89 1.94c-142.8,35.05 -297.67,62.53 -461.29,81.03 -158.62,17.94 -325.12,27.52 -496.47,27.52 -170.74,0 -336.68,-9.52 -494.81,-27.33 -162.8,-18.35 -317.15,-45.64 -459.75,-80.5l-1.67 -0.42c-0.34,-0.08 -117.17,-30.33 -129.87,-182.11 -6.93,-82.63 -12.29,-168.96 -16.01,-258.88 -3.67,-88.83 -5.56,-176.28 -5.56,-261.99 0,-91.71 2.13,-184.73 6.25,-278.69 4.07,-92.29 10.21,-183.92 18.31,-274.58 10.94,-122.77 106.68,-146.71 131.61,-150.89 141.96,-34.55 295.5,-61.6 457.37,-79.82 157.94,-17.77 323.64,-27.26 494.13,-27.26 167.76,0 330.95,9.2 486.7,26.44 158.47,17.53 309.3,43.62 449.44,77 13.11,2.12 136.31,25.99 149.43,180.57z"/>
  <path class="fil0" d="M3646.33 2243.57c11.39,4.96 30.36,7.88 43.79,7.88 44.66,0 72.09,-18.1 72.09,-78.81 0,-60.43 -27.73,-77.35 -72.09,-77.35 -13.43,0 -32.7,2.91 -43.79,7l7.3 23.35c9.63,-4.08 23.06,-6.13 35.32,-6.13 25.69,0 40.28,6.13 43.49,37.07l-63.34 0 0 22.77 63.92 0c-1.46,38.53 -15.76,47.87 -44.07,47.87 -12.55,0 -25.69,-2.63 -35.32,-6.71l-7.3 23.06z"/>
  <path id="_1" class="fil0" d="M4011.19 2123.89l0 123.47 27.73 0 0 -147.99 -100.41 0c-2.63,54.88 -14.01,106.25 -28.02,147.99l29.48 0c11.38,-35.9 21.31,-83.48 24.81,-123.47l46.41 0z"/>
  <path id="_2" class="fil0" d="M4313.01 2220.21c-11.97,4.09 -31.53,7.01 -42.04,7.01 -30.06,0 -43.78,-8.47 -44.07,-48.16l100.7 0c1.46,-67.43 -18.1,-83.77 -62.46,-83.77 -43.5,0 -67.72,18.68 -67.72,77.35 0,60.71 26.56,78.81 70.34,78.81 14.01,0 35.32,-3.51 50.5,-8.18l-5.25 -23.06zm-46.71 -101.87c23.94,0 32.4,6.72 33.86,38.24l-72.97 0c2.34,-29.48 12.26,-38.24 39.11,-38.24z"/>
  <path id="_3" class="fil0" d="M4611.61 2247.36c-35.32,-66.55 -49.33,-74.43 -65.09,-80.56 8.75,-6.13 29.77,-29.19 61,-67.43l-33.56 0c-27.15,32.4 -51.08,59.55 -63.34,71.22l0 -71.22 -27.44 0 0 147.99 27.44 0 0 -70.64c19.26,3.8 39.4,15.18 68.3,70.64l32.69 0z"/>
  <polygon id="_4" class="fil0" points="4817.39,2123.89 4871.68,2123.89 4871.68,2099.37 4735.07,2099.37 4735.07,2123.89 4789.66,2123.89 4789.66,2247.36 4817.39,2247.36 "/>
  <path id="_5" class="fil0" d="M5043.6 2125.06c9.34,-3.5 22.47,-5.26 34.73,-5.26 30.07,0 39.99,8.18 39.99,53.71 0,42.62 -9.92,53.71 -39.99,53.71 -18.97,0 -34.73,-6.42 -34.73,-17.81l0 -84.35zm-27.44 178.34l27.44 0 0 -62.46c7.58,5.25 19.26,10.51 37.94,10.51 42.91,0 65.68,-18.1 65.68,-78.52 0,-60.42 -21.6,-77.64 -68.89,-77.64 -19.56,0 -46.12,4.37 -62.17,11.09l0 197.02z"/>
  <path id="_6" class="fil0" d="M5370.51 2251.45c47,0 68.89,-18.1 68.89,-78.81 0,-60.43 -22.18,-77.35 -68.89,-77.35 -46.41,0 -68.88,16.92 -68.88,77.35 0,60.71 22.18,78.81 68.88,78.81zm0 -132.52c30.07,0 39.7,7.88 39.7,54.29 0,44.37 -9.63,54.58 -39.7,54.58 -30.06,0 -39.69,-10.21 -39.69,-54.58 0,-46.41 9.63,-54.29 39.69,-54.29z"/>
  <polygon id="_7" class="fil0" points="5661.53,2123.89 5715.82,2123.89 5715.82,2099.37 5579.21,2099.37 5579.21,2123.89 5633.8,2123.89 5633.8,2247.36 5661.53,2247.36 "/>
  <path id="_8" class="fil0" d="M5924.51 2251.45c47,0 68.89,-18.1 68.89,-78.81 0,-60.43 -22.18,-77.35 -68.89,-77.35 -46.41,0 -68.88,16.92 -68.88,77.35 0,60.71 22.18,78.81 68.88,78.81zm0 -132.52c30.07,0 39.7,7.88 39.7,54.29 0,44.37 -9.63,54.58 -39.7,54.58 -30.06,0 -39.69,-10.21 -39.69,-54.58 0,-46.41 9.63,-54.29 39.69,-54.29z"/>
  <path id="_9" class="fil0" d="M6179.92 2224.59l0 -44.95 50.49 0c14.01,0 20.14,8.47 20.14,23.94 0,14.88 -4.96,21.01 -19.26,21.01l-51.37 0zm0 -102.45l49.33 0c14.01,0 18.09,4.38 18.09,17.22 0,11.68 -4.08,18.97 -18.09,18.97l-49.33 0 0 -36.19zm64.8 45.83c26.85,-2.05 31.52,-14.6 31.52,-33.28 0,-20.14 -7.3,-35.32 -40.28,-35.32l-83.48 0 0 147.99 85.52 0c26.56,0 42.03,-12.84 42.03,-41.16 0,-21.01 -7.29,-37.07 -35.31,-38.23l0 0z"/>
  <path id="_10" class="fil0" d="M6557.04 2152.79c0,-44.66 -19.27,-57.5 -62.76,-57.5 -20.72,0 -40.86,3.79 -54,7.29l5.84 23.94c11.97,-4.67 28.6,-6.72 43.78,-6.72 32.4,0 40.28,6.72 40.28,37.66 -14.01,-2.92 -25.39,-4.38 -39.4,-4.38 -33.86,0 -58.38,6.71 -58.38,48.75 0,38.52 16.64,49.62 61.3,49.62 19.85,0 45.82,-4.38 63.34,-11.68l0 -86.98zm-26.86 70.34c-9.92,3.51 -22.47,5.84 -34.73,5.84 -26.56,0 -33.28,-3.79 -33.28,-28.6 0,-23.06 8.47,-25.69 33.57,-25.69 12.55,0 25.1,0.88 34.44,3.21l0 45.24z"/>
  <path id="_11" class="fil0" d="M6747.35 2125.06c9.34,-3.5 22.47,-5.26 34.73,-5.26 30.07,0 39.99,8.18 39.99,53.71 0,42.62 -9.92,53.71 -39.99,53.71 -18.97,0 -34.73,-6.42 -34.73,-17.81l0 -84.35zm-27.44 178.34l27.44 0 0 -62.46c7.58,5.25 19.26,10.51 37.94,10.51 42.91,0 65.68,-18.1 65.68,-78.52 0,-60.42 -21.6,-77.64 -68.89,-77.64 -19.56,0 -46.12,4.37 -62.17,11.09l0 197.02z"/>
  <path id="_12" class="fil0" d="M7087.69 2225.18l-50.2 0 0 -47 49.91 0c14.01,0 20.72,5.84 20.72,22.77 0,17.8 -6.13,24.23 -20.43,24.23zm-50.2 -69.47l0 -56.34 -27.73 0 0 147.99 82.31 0c31.23,0 45.53,-13.43 45.53,-46.7 0,-30.07 -14.3,-44.95 -45.53,-44.95l-54.58 0zm145.65 -56.34l-27.73 0 0 147.99 27.73 0 0 -147.99z"/>
  <path id="_13" class="fil0" d="M7649.28 2179.06l22.19 0c27.43,0 38.53,6.13 38.53,23.64 0,18.39 -8.76,24.52 -41.16,24.52 -16.64,0 -32.69,-2.04 -44.66,-6.42l-6.42 24.81c14.01,3.79 32.4,5.84 51.37,5.84 47.87,0 70.05,-10.22 70.05,-43.79 0,-21.31 -8.75,-37.65 -39.69,-39.11 29.19,-2.34 35.61,-16.93 35.61,-36.19 0,-25.98 -17.52,-37.07 -65.97,-37.07 -17.51,0 -36.49,2.33 -49.91,5.83l6.13 24.23c11.67,-3.79 26.27,-6.13 43.49,-6.13 29.48,0 37.65,5.55 37.65,18.97 0,14.89 -9.92,18.98 -35.02,18.98l-22.19 0 0 21.89z"/>
  <path id="_14" class="fil0" d="M7925.7 2099.37c-2.34,44.37 -11.09,86.4 -22.18,123.47l-25.4 0 6.71 63.93 21.6 0 0 -39.41 118.8 0 0 39.41 21.9 0 6.42 -63.93 -27.73 0 0 -123.47 -100.12 0zm72.68 24.52l0 98.95 -65.97 0c8.76,-32.11 16.35,-68.88 18.98,-98.95l46.99 0z"/>
  <path id="_15" class="fil0" d="M8308.95 2220.21c-11.97,4.09 -31.53,7.01 -42.04,7.01 -30.06,0 -43.78,-8.47 -44.07,-48.16l100.7 0c1.46,-67.43 -18.1,-83.77 -62.46,-83.77 -43.5,0 -67.72,18.68 -67.72,77.35 0,60.71 26.56,78.81 70.34,78.81 14.01,0 35.32,-3.51 50.5,-8.18l-5.25 -23.06zm-46.71 -101.87c23.94,0 32.4,6.72 33.86,38.24l-72.97 0c2.34,-29.48 12.26,-38.24 39.11,-38.24z"/>
  <path id="_16" class="fil0" d="M8583.32 2219.34c-9.92,4.09 -22.47,7.3 -35.32,7.3 -30.06,0 -44.36,-9.93 -44.36,-53.42 0,-45.83 14.3,-53.12 44.36,-53.12 12.26,0 25.4,2.33 35.32,6.71l7.3 -24.52c-11.09,-4.09 -30.36,-7 -43.78,-7 -45.25,0 -72.39,16.92 -72.39,77.35 0,60.71 26.85,78.81 72.39,78.81 13.42,0 32.4,-2.92 43.78,-7.88l-7.3 -24.23z"/>
  <path id="_17" class="fil0" d="M8814.2 2225.18l-50.2 0 0 -47 49.91 0c14.01,0 20.72,5.84 20.72,22.77 0,17.8 -6.13,24.23 -20.43,24.23zm-50.2 -69.47l0 -56.34 -27.73 0 0 147.99 82.31 0c31.23,0 45.53,-13.43 45.53,-46.7 0,-30.07 -14.3,-44.95 -45.53,-44.95l-54.58 0z"/>
  <path class="fil0" d="M3646.33 2243.57c11.39,4.96 30.36,7.88 43.79,7.88 44.66,0 72.09,-18.1 72.09,-78.81 0,-60.43 -27.73,-77.35 -72.09,-77.35 -13.43,0 -32.7,2.91 -43.79,7l7.3 23.35c9.63,-4.08 23.06,-6.13 35.32,-6.13 25.69,0 40.28,6.13 43.49,37.07l-63.34 0 0 22.77 63.92 0c-1.46,38.53 -15.76,47.87 -44.07,47.87 -12.55,0 -25.69,-2.63 -35.32,-6.71l-7.3 23.06z"/>
  <path id="_1_0" class="fil0" d="M4011.19 2123.89l0 123.47 27.73 0 0 -147.99 -100.41 0c-2.63,54.88 -14.01,106.25 -28.02,147.99l29.48 0c11.38,-35.9 21.31,-83.48 24.81,-123.47l46.41 0z"/>
  <path id="_2_1" class="fil0" d="M4313.01 2220.21c-11.97,4.09 -31.53,7.01 -42.04,7.01 -30.06,0 -43.78,-8.47 -44.07,-48.16l100.7 0c1.46,-67.43 -18.1,-83.77 -62.46,-83.77 -43.5,0 -67.72,18.68 -67.72,77.35 0,60.71 26.56,78.81 70.34,78.81 14.01,0 35.32,-3.51 50.5,-8.18l-5.25 -23.06zm-46.71 -101.87c23.94,0 32.4,6.72 33.86,38.24l-72.97 0c2.34,-29.48 12.26,-38.24 39.11,-38.24z"/>
  <path id="_3_2" class="fil0" d="M4611.61 2247.36c-35.32,-66.55 -49.33,-74.43 -65.09,-80.56 8.75,-6.13 29.77,-29.19 61,-67.43l-33.56 0c-27.15,32.4 -51.08,59.55 -63.34,71.22l0 -71.22 -27.44 0 0 147.99 27.44 0 0 -70.64c19.26,3.8 39.4,15.18 68.3,70.64l32.69 0z"/>
  <polygon id="_4_3" class="fil0" points="4817.39,2123.89 4871.68,2123.89 4871.68,2099.37 4735.07,2099.37 4735.07,2123.89 4789.66,2123.89 4789.66,2247.36 4817.39,2247.36 "/>
  <path id="_5_4" class="fil0" d="M5043.6 2125.06c9.34,-3.5 22.47,-5.26 34.73,-5.26 30.07,0 39.99,8.18 39.99,53.71 0,42.62 -9.92,53.71 -39.99,53.71 -18.97,0 -34.73,-6.42 -34.73,-17.81l0 -84.35zm-27.44 178.34l27.44 0 0 -62.46c7.58,5.25 19.26,10.51 37.94,10.51 42.91,0 65.68,-18.1 65.68,-78.52 0,-60.42 -21.6,-77.64 -68.89,-77.64 -19.56,0 -46.12,4.37 -62.17,11.09l0 197.02z"/>
  <path id="_6_5" class="fil0" d="M5370.51 2251.45c47,0 68.89,-18.1 68.89,-78.81 0,-60.43 -22.18,-77.35 -68.89,-77.35 -46.41,0 -68.88,16.92 -68.88,77.35 0,60.71 22.18,78.81 68.88,78.81zm0 -132.52c30.07,0 39.7,7.88 39.7,54.29 0,44.37 -9.63,54.58 -39.7,54.58 -30.06,0 -39.69,-10.21 -39.69,-54.58 0,-46.41 9.63,-54.29 39.69,-54.29z"/>
  <polygon id="_7_6" class="fil0" points="5661.53,2123.89 5715.82,2123.89 5715.82,2099.37 5579.21,2099.37 5579.21,2123.89 5633.8,2123.89 5633.8,2247.36 5661.53,2247.36 "/>
  <path id="_8_7" class="fil0" d="M5924.51 2251.45c47,0 68.89,-18.1 68.89,-78.81 0,-60.43 -22.18,-77.35 -68.89,-77.35 -46.41,0 -68.88,16.92 -68.88,77.35 0,60.71 22.18,78.81 68.88,78.81zm0 -132.52c30.07,0 39.7,7.88 39.7,54.29 0,44.37 -9.63,54.58 -39.7,54.58 -30.06,0 -39.69,-10.21 -39.69,-54.58 0,-46.41 9.63,-54.29 39.69,-54.29z"/>
  <path id="_9_8" class="fil0" d="M6179.92 2224.59l0 -44.95 50.49 0c14.01,0 20.14,8.47 20.14,23.94 0,14.88 -4.96,21.01 -19.26,21.01l-51.37 0zm0 -102.45l49.33 0c14.01,0 18.09,4.38 18.09,17.22 0,11.68 -4.08,18.97 -18.09,18.97l-49.33 0 0 -36.19zm64.8 45.83c26.85,-2.05 31.52,-14.6 31.52,-33.28 0,-20.14 -7.3,-35.32 -40.28,-35.32l-83.48 0 0 147.99 85.52 0c26.56,0 42.03,-12.84 42.03,-41.16 0,-21.01 -7.29,-37.07 -35.31,-38.23l0 0z"/>
  <path id="_10_9" class="fil0" d="M6557.04 2152.79c0,-44.66 -19.27,-57.5 -62.76,-57.5 -20.72,0 -40.86,3.79 -54,7.29l5.84 23.94c11.97,-4.67 28.6,-6.72 43.78,-6.72 32.4,0 40.28,6.72 40.28,37.66 -14.01,-2.92 -25.39,-4.38 -39.4,-4.38 -33.86,0 -58.38,6.71 -58.38,48.75 0,38.52 16.64,49.62 61.3,49.62 19.85,0 45.82,-4.38 63.34,-11.68l0 -86.98zm-26.86 70.34c-9.92,3.51 -22.47,5.84 -34.73,5.84 -26.56,0 -33.28,-3.79 -33.28,-28.6 0,-23.06 8.47,-25.69 33.57,-25.69 12.55,0 25.1,0.88 34.44,3.21l0 45.24z"/>
  <path id="_11_10" class="fil0" d="M6747.35 2125.06c9.34,-3.5 22.47,-5.26 34.73,-5.26 30.07,0 39.99,8.18 39.99,53.71 0,42.62 -9.92,53.71 -39.99,53.71 -18.97,0 -34.73,-6.42 -34.73,-17.81l0 -84.35zm-27.44 178.34l27.44 0 0 -62.46c7.58,5.25 19.26,10.51 37.94,10.51 42.91,0 65.68,-18.1 65.68,-78.52 0,-60.42 -21.6,-77.64 -68.89,-77.64 -19.56,0 -46.12,4.37 -62.17,11.09l0 197.02z"/>
  <path id="_12_11" class="fil0" d="M7087.69 2225.18l-50.2 0 0 -47 49.91 0c14.01,0 20.72,5.84 20.72,22.77 0,17.8 -6.13,24.23 -20.43,24.23zm-50.2 -69.47l0 -56.34 -27.73 0 0 147.99 82.31 0c31.23,0 45.53,-13.43 45.53,-46.7 0,-30.07 -14.3,-44.95 -45.53,-44.95l-54.58 0zm145.65 -56.34l-27.73 0 0 147.99 27.73 0 0 -147.99z"/>
  <path id="_13_12" class="fil0" d="M7649.28 2179.06l22.19 0c27.43,0 38.53,6.13 38.53,23.64 0,18.39 -8.76,24.52 -41.16,24.52 -16.64,0 -32.69,-2.04 -44.66,-6.42l-6.42 24.81c14.01,3.79 32.4,5.84 51.37,5.84 47.87,0 70.05,-10.22 70.05,-43.79 0,-21.31 -8.75,-37.65 -39.69,-39.11 29.19,-2.34 35.61,-16.93 35.61,-36.19 0,-25.98 -17.52,-37.07 -65.97,-37.07 -17.51,0 -36.49,2.33 -49.91,5.83l6.13 24.23c11.67,-3.79 26.27,-6.13 43.49,-6.13 29.48,0 37.65,5.55 37.65,18.97 0,14.89 -9.92,18.98 -35.02,18.98l-22.19 0 0 21.89z"/>
  <path id="_14_13" class="fil0" d="M7925.7 2099.37c-2.34,44.37 -11.09,86.4 -22.18,123.47l-25.4 0 6.71 63.93 21.6 0 0 -39.41 118.8 0 0 39.41 21.9 0 6.42 -63.93 -27.73 0 0 -123.47 -100.12 0zm72.68 24.52l0 98.95 -65.97 0c8.76,-32.11 16.35,-68.88 18.98,-98.95l46.99 0z"/>
  <path id="_15_14" class="fil0" d="M8308.95 2220.21c-11.97,4.09 -31.53,7.01 -42.04,7.01 -30.06,0 -43.78,-8.47 -44.07,-48.16l100.7 0c1.46,-67.43 -18.1,-83.77 -62.46,-83.77 -43.5,0 -67.72,18.68 -67.72,77.35 0,60.71 26.56,78.81 70.34,78.81 14.01,0 35.32,-3.51 50.5,-8.18l-5.25 -23.06zm-46.71 -101.87c23.94,0 32.4,6.72 33.86,38.24l-72.97 0c2.34,-29.48 12.26,-38.24 39.11,-38.24z"/>
  <path id="_16_15" class="fil0" d="M8583.32 2219.34c-9.92,4.09 -22.47,7.3 -35.32,7.3 -30.06,0 -44.36,-9.93 -44.36,-53.42 0,-45.83 14.3,-53.12 44.36,-53.12 12.26,0 25.4,2.33 35.32,6.71l7.3 -24.52c-11.09,-4.09 -30.36,-7 -43.78,-7 -45.25,0 -72.39,16.92 -72.39,77.35 0,60.71 26.85,78.81 72.39,78.81 13.42,0 32.4,-2.92 43.78,-7.88l-7.3 -24.23z"/>
  <path id="_17_16" class="fil0" d="M8814.2 2225.18l-50.2 0 0 -47 49.91 0c14.01,0 20.72,5.84 20.72,22.77 0,17.8 -6.13,24.23 -20.43,24.23zm-50.2 -69.47l0 -56.34 -27.73 0 0 147.99 82.31 0c31.23,0 45.53,-13.43 45.53,-46.7 0,-30.07 -14.3,-44.95 -45.53,-44.95l-54.58 0z"/>
 </g>
</svg>
